<svg width="166" height="192" viewBox="0 0 166 192" fill="none" xmlns="http://www.w3.org/2000/svg">
<g clip-path="url(#clip0_12_5)">
<path d="M164.471 109.287C163.799 110.098 163.067 110.844 162.339 111.603C161.698 112.27 161.077 112.96 160.582 113.746C160.122 114.478 159.785 115.276 159.575 116.113C159.365 116.955 159.284 117.821 159.278 118.686C159.276 119.123 159.288 119.563 159.34 119.996C159.367 120.224 159.384 120.456 159.415 120.684C159.432 120.802 159.452 120.92 159.471 121.039C159.477 121.14 159.492 121.242 159.519 121.337C159.519 121.341 159.521 121.341 159.523 121.345C159.523 121.662 159.455 121.978 159.346 122.276C159.034 123.14 158.458 123.903 157.862 124.594C157.242 125.309 156.558 125.966 155.848 126.59C154.033 128.188 152.111 129.691 150.065 130.984C149.348 131.438 148.609 131.859 147.856 132.245C149.237 130.868 150.053 129.044 150.73 127.245C151.101 126.262 151.431 125.267 151.799 124.285C152.153 123.342 152.548 122.429 153.049 121.555C153.12 121.43 152.954 121.343 152.856 121.399C151.764 122.029 150.668 122.653 149.632 123.375C148.724 124.007 147.859 124.718 147.124 125.551C146.411 126.362 145.773 127.29 145.461 128.333C145.192 129.229 145.178 130.159 145.095 131.082C145.007 132.037 144.787 132.947 144.279 133.766C143.653 133.982 143.019 134.174 142.377 134.344C139.613 135.072 136.766 135.412 133.944 135.837C133.682 135.876 133.422 135.918 133.16 135.959C133.282 135.909 133.405 135.86 133.526 135.808C134.551 135.364 135.533 134.79 136.356 134.034C137.126 133.327 137.729 132.464 138.28 131.581C139.38 129.817 140.312 127.838 141.992 126.534C142.085 126.461 142.004 126.306 141.892 126.349C140.657 126.843 139.411 127.313 138.224 127.914C137.221 128.422 136.265 129.023 135.412 129.757C134.584 130.468 133.888 131.279 133.282 132.182C132.688 133.07 132.147 133.996 131.502 134.848C130.966 135.555 130.338 136.249 129.533 136.647C128.514 136.878 127.501 137.145 126.499 137.458C125.9 137.645 125.305 137.846 124.716 138.061C124.825 137.987 124.931 137.912 125.037 137.835C126.079 137.099 127.027 136.229 127.861 135.265C128.553 134.465 129.073 133.546 129.489 132.576C130.309 130.667 130.768 128.59 131.947 126.851C132.03 126.731 131.87 126.6 131.77 126.708C130.872 127.668 129.666 128.248 128.591 128.978C127.636 129.624 126.752 130.4 125.954 131.229C125.163 132.05 124.442 132.954 123.882 133.949C122.909 135.681 122.418 137.634 121.508 139.394C120.877 139.69 120.258 140.003 119.646 140.337C118.615 140.899 117.612 141.517 116.656 142.197C117.617 140.665 118.247 138.905 118.529 137.126C118.837 135.186 118.798 133.211 119.072 131.268C119.093 131.123 118.862 131.042 118.816 131.192C118.665 131.685 118.328 132.091 117.983 132.464C117.621 132.854 117.228 133.215 116.866 133.602C116.136 134.386 115.562 135.354 115.111 136.32C114.661 137.282 114.337 138.283 114.231 139.34C114.06 141.05 114.329 142.887 113.83 144.551C112.457 145.903 111.332 147.501 110.471 149.22C109.61 150.938 108.965 152.884 109.071 154.827C109.175 156.765 110.171 158.527 111.935 159.408C111.995 159.437 112.051 159.431 112.099 159.404C112.27 159.404 112.438 159.203 112.309 159.018C112.114 158.738 111.956 158.44 111.837 158.121C111.336 156.773 111.536 155.239 112.002 153.913C112.203 153.336 112.459 152.793 112.761 152.279C113.089 152.032 113.457 151.848 113.861 151.738C114.383 151.597 114.94 151.581 115.474 151.628C116.442 151.715 117.379 151.983 118.332 152.159C119.282 152.333 120.243 152.447 121.21 152.466C122.181 152.484 123.128 152.379 124.076 152.18C124.901 152.008 125.796 151.833 126.455 151.274C126.517 151.222 126.53 151.122 126.459 151.067C125.525 150.349 124.429 149.825 123.311 149.46C122.31 149.135 121.273 148.938 120.218 148.929C119.056 148.921 117.891 149.029 116.76 149.302C115.942 149.499 115.16 149.806 114.403 150.167C114.41 150.161 114.416 150.152 114.424 150.146C115.57 149.002 116.968 148.133 118.494 147.594C119.987 147.066 121.572 146.85 123.15 146.807C126.426 146.715 129.678 147.302 132.912 147.737C133.158 147.771 133.401 147.804 133.646 147.837C133.655 147.849 133.663 147.86 133.673 147.872C134.041 148.21 134.441 148.515 134.79 148.871C135.15 149.24 135.42 149.671 135.612 150.146C135.957 151.008 136.071 151.939 136.329 152.826C136.574 153.67 136.976 154.435 137.614 155.046C138.777 156.162 140.511 156.792 142.119 156.688C142.177 156.684 142.243 156.63 142.248 156.568C142.275 156.197 141.986 155.886 141.751 155.631C141.428 155.283 141.108 154.93 140.831 154.543C139.785 153.083 139.592 151.187 138.477 149.765C137.968 149.114 137.284 148.612 136.512 148.316C136.327 148.243 136.138 148.183 135.946 148.127C137.745 148.337 139.552 148.48 141.366 148.43C143.92 148.357 146.671 147.899 148.699 146.249C148.734 146.257 148.769 146.253 148.803 146.224C149.073 145.975 149.429 145.828 149.761 145.679C150.096 145.53 150.437 145.391 150.751 145.202C152.178 144.338 153.041 142.86 154.02 141.566C155.044 140.217 156.123 138.909 157.325 137.715C157.437 137.603 157.263 137.454 157.144 137.526C156.695 137.804 156.198 138.003 155.715 138.212C155.256 138.414 154.815 138.637 154.378 138.886C153.569 139.348 152.769 139.848 152.053 140.447C151.467 140.94 150.997 141.539 150.604 142.192C150.208 142.85 149.888 143.548 149.531 144.226C149.358 144.553 149.192 144.885 149.017 145.213C148.842 145.538 148.651 145.882 148.368 146.127C148.333 146.158 148.322 146.201 148.326 146.243C148.274 146.28 148.22 146.318 148.166 146.353C145.766 147.957 142.651 148.162 139.848 148.05C137.479 147.955 135.123 147.626 132.777 147.273C133.665 147.203 134.559 147.109 135.418 146.867C136.306 146.616 137.136 146.195 137.899 145.683C139.473 144.628 140.68 143.107 142.352 142.188C142.474 142.122 142.389 141.896 142.252 141.927C141.239 142.161 140.199 142.263 139.172 142.408C138.261 142.537 137.348 142.696 136.475 142.993C135.637 143.277 134.902 143.724 134.204 144.261C133.513 144.79 132.86 145.37 132.114 145.822C131.288 146.322 130.35 146.624 129.391 146.728C129.364 146.73 129.339 146.742 129.321 146.757C126.856 146.407 124.359 146.133 121.882 146.357C122.156 146.305 122.431 146.268 122.71 146.239C124.07 146.096 125.446 146.092 126.792 145.835C128.121 145.58 129.358 145.043 130.294 144.046C130.363 143.973 130.311 143.826 130.207 143.82C129.352 143.768 128.495 143.72 127.636 143.722C126.865 143.722 126.091 143.764 125.326 143.867C124.544 143.975 123.762 144.133 123.03 144.435C122.292 144.74 121.589 145.163 120.971 145.667C120.723 145.868 120.497 146.096 120.249 146.297C120.016 146.485 119.75 146.691 119.445 146.736C119.407 146.742 119.382 146.759 119.363 146.782C118.421 147.026 117.506 147.371 116.647 147.833C115.169 148.631 113.846 149.769 112.858 151.131C111.997 152.319 111.388 153.726 111.149 155.173C110.96 156.311 111.024 157.509 111.496 158.558C111.324 158.402 111.155 158.241 110.999 158.069C108.25 155.069 110.188 150.436 112.122 147.551C114.019 144.719 116.762 142.588 119.748 140.949C120.251 140.845 120.771 140.82 121.283 140.839C122.481 140.882 123.658 141.15 124.831 141.38C126.029 141.614 127.245 141.767 128.453 141.935C129.67 142.103 130.899 142.24 132.13 142.205C133.401 142.168 134.659 141.929 135.834 141.44C135.926 141.403 135.948 141.28 135.869 141.216C134.963 140.48 133.91 139.943 132.804 139.576C130.722 138.888 128.478 138.76 126.303 138.932C125.097 139.027 123.891 139.218 122.71 139.502C122.71 139.502 122.714 139.502 122.714 139.5C124.939 138.532 127.256 137.763 129.622 137.215C130.974 136.902 132.34 136.666 133.711 136.455C134.241 136.627 134.794 136.701 135.343 136.795C135.659 136.849 135.973 136.907 136.281 136.994C136.624 137.091 136.945 137.238 137.267 137.387C138.398 137.912 139.5 138.507 140.673 138.94C141.801 139.355 142.98 139.597 144.18 139.651C146.555 139.755 148.902 139.172 151.063 138.217C151.178 138.167 151.176 137.98 151.038 137.962C149.855 137.808 148.771 137.329 147.684 136.869C146.702 136.453 145.719 136.106 144.662 135.932C143.579 135.752 142.474 135.69 141.378 135.632C140.675 135.594 139.973 135.576 139.272 135.584C141.499 135.18 143.703 134.645 145.798 133.772C147.755 132.958 149.595 131.89 151.331 130.677C152.18 130.402 153.143 130.508 154.016 130.537C154.992 130.568 155.967 130.642 156.944 130.655C157.963 130.667 158.974 130.578 159.972 130.365C160.977 130.151 161.971 129.828 162.88 129.347C163.772 128.876 164.533 128.205 165.419 127.728C165.55 127.657 165.515 127.471 165.359 127.473C164.325 127.477 163.294 127.427 162.26 127.415C161.366 127.404 160.469 127.419 159.579 127.516C158.687 127.614 157.805 127.804 156.944 128.053C156.067 128.306 155.206 128.613 154.355 128.94C153.74 129.177 153.153 129.467 152.575 129.774C152.644 129.722 152.714 129.67 152.783 129.616C154.424 128.36 156.038 127.019 157.46 125.516C158.094 124.844 158.693 124.127 159.157 123.329C159.523 122.701 159.812 121.973 159.756 121.238C159.937 120.854 160.053 120.444 160.212 120.05C160.397 119.592 160.675 119.19 160.981 118.806C161.513 118.143 162.1 117.525 162.601 116.837C163.104 116.144 163.504 115.402 163.782 114.594C164.061 113.785 164.24 112.942 164.362 112.096C164.496 111.19 164.489 110.262 164.656 109.36C164.676 109.252 164.533 109.194 164.466 109.275L164.471 109.287ZM150.308 145.126C150.219 145.169 150.127 145.211 150.034 145.252C150.774 144.512 151.198 143.548 151.826 142.719C152.509 141.815 153.32 141.021 154.114 140.219C154.222 140.111 154.037 139.968 153.931 140.072C153.471 140.518 153.018 140.965 152.586 141.436C152.222 141.832 151.874 142.24 151.556 142.673C151.221 143.129 150.947 143.614 150.649 144.095C150.26 144.728 149.759 145.229 149.173 145.642C149.115 145.673 149.056 145.706 149 145.741C149 145.741 149 145.741 148.998 145.741C149.077 145.619 149.15 145.495 149.219 145.368C149.416 145.014 149.603 144.653 149.793 144.294C150.161 143.6 150.489 142.881 150.907 142.213C151.331 141.531 151.851 140.945 152.488 140.451C153.216 139.889 154.002 139.411 154.802 138.961C155.36 138.648 155.957 138.418 156.535 138.146C156.065 138.642 155.609 139.152 155.173 139.674C154.638 140.312 154.124 140.969 153.623 141.635C153.12 142.302 152.654 143.009 152.109 143.646C151.608 144.232 151.009 144.781 150.308 145.124V145.126ZM134.507 148.229C134.954 148.438 135.381 148.687 135.755 149.01C136.281 149.464 136.641 150.055 136.745 150.745C136.83 151.307 136.93 151.867 137.08 152.414C137.383 153.517 137.943 154.707 139.082 155.146C139.245 155.208 139.353 154.968 139.193 154.901C138.575 154.644 138.12 154.134 137.812 153.552C137.529 153.017 137.348 152.43 137.215 151.844C137.086 151.27 137.061 150.652 136.855 150.098C136.518 149.197 135.772 148.591 134.938 148.146C135.514 148.287 136.09 148.434 136.633 148.679C137.385 149.018 138.011 149.564 138.469 150.25C138.937 150.953 139.222 151.753 139.521 152.534C139.827 153.33 140.151 154.126 140.663 154.814C140.906 155.142 141.177 155.449 141.453 155.747C141.607 155.913 141.888 156.164 141.946 156.415C141.089 156.442 140.23 156.24 139.448 155.896C138.712 155.571 138.02 155.102 137.502 154.483C136.922 153.786 136.658 152.924 136.45 152.057C136.242 151.189 136.075 150.295 135.63 149.506C135.343 148.996 134.936 148.606 134.507 148.233V148.229ZM131.56 147.097C131.417 147.076 131.273 147.053 131.132 147.033C131.022 147.016 130.91 146.999 130.799 146.983C131.12 146.95 131.44 146.902 131.758 146.838C132.444 146.699 133.114 146.496 133.769 146.251C134.437 146 135.104 145.714 135.722 145.358C136.304 145.022 136.824 144.603 137.358 144.199C137.6 144.017 137.847 143.84 138.111 143.693C138.35 143.561 138.635 143.422 138.914 143.424C139.072 143.424 139.045 143.183 138.891 143.181C138.261 143.177 137.679 143.621 137.198 143.981C136.664 144.386 136.142 144.802 135.56 145.138C134.938 145.497 134.264 145.774 133.592 146.021C132.71 146.347 131.787 146.597 130.849 146.703C131.373 146.533 131.877 146.305 132.349 146.017C133.085 145.565 133.734 144.993 134.42 144.475C135.137 143.932 135.888 143.498 136.749 143.227C138.29 142.74 139.914 142.659 141.499 142.381C140.858 142.814 140.272 143.324 139.704 143.849C138.377 145.07 136.918 146.199 135.139 146.657C134.206 146.898 133.235 146.968 132.278 147.041C132.051 147.058 131.81 147.084 131.565 147.101L131.56 147.097ZM122.262 146.023C121.842 146.079 121.435 146.179 121.029 146.293C121.281 146.137 121.535 145.988 121.799 145.851C122.269 145.607 122.762 145.403 123.275 145.262C123.781 145.126 124.303 145.061 124.822 145.016C125.802 144.931 126.836 144.933 127.761 144.562C127.909 144.502 127.823 144.29 127.674 144.336C127.11 144.504 126.54 144.603 125.956 144.657C124.922 144.752 123.882 144.777 122.886 145.099C122.24 145.308 121.639 145.615 121.058 145.963C121.096 145.932 121.133 145.901 121.169 145.872C121.803 145.366 122.512 144.941 123.271 144.647C123.999 144.365 124.779 144.222 125.552 144.129C126.985 143.954 128.429 144.004 129.866 144.085C129.377 144.551 128.801 144.914 128.171 145.165C126.925 145.662 125.563 145.756 124.24 145.847C123.581 145.893 122.92 145.936 122.264 146.021L122.262 146.023ZM113.102 151.732C113.156 151.651 113.212 151.572 113.268 151.496C113.902 151.23 114.564 151.029 115.242 150.905C115.951 150.774 116.674 150.724 117.394 150.762C118.122 150.799 118.837 150.938 119.555 151.067C120.944 151.319 122.352 151.572 123.766 151.413C123.945 151.392 123.918 151.118 123.739 151.135C122.915 151.21 122.094 151.162 121.277 151.054C119.854 150.865 118.448 150.478 117.007 150.467C115.838 150.459 114.693 150.679 113.597 151.067C113.655 150.996 113.713 150.923 113.771 150.855C114.071 150.681 114.387 150.534 114.705 150.397C115.572 150.02 116.46 149.715 117.392 149.539C118.465 149.336 119.586 149.238 120.68 149.286C122.616 149.371 124.562 150.09 126.158 151.181C125.808 151.444 125.376 151.593 124.958 151.707C124.477 151.842 123.98 151.941 123.487 152.028C121.539 152.375 119.542 152.157 117.621 151.751C116.161 151.44 114.455 151.05 113.1 151.732H113.102ZM120.42 140.598C120.663 140.472 120.906 140.35 121.15 140.231C121.512 140.159 121.882 140.124 122.252 140.109C123.749 140.053 125.243 140.323 126.721 140.509C128.065 140.679 129.468 140.851 130.793 140.493C130.932 140.455 130.851 140.246 130.712 140.283C130.007 140.474 129.227 140.47 128.505 140.433C127.006 140.352 125.525 140.068 124.032 139.931C123.512 139.883 122.974 139.846 122.435 139.852C122.764 139.769 123.094 139.693 123.425 139.624C125.567 139.183 127.792 139.002 129.972 139.249C131.951 139.473 133.931 140.07 135.524 141.291C134.247 141.784 132.893 141.975 131.525 141.958C130.257 141.942 128.998 141.763 127.744 141.581C127.12 141.49 126.492 141.411 125.868 141.314C125.292 141.222 124.723 141.104 124.153 140.99C122.992 140.76 121.663 140.505 120.42 140.6V140.598ZM115.961 142.707C115.558 143.013 115.165 143.335 114.784 143.666C114.84 143.579 114.896 143.492 114.952 143.403C115.298 142.862 115.628 142.306 115.861 141.703C116.113 141.052 116.223 140.358 116.36 139.676C116.645 138.258 116.945 136.834 117.575 135.522C117.639 135.387 117.427 135.294 117.363 135.429C117.011 136.154 116.753 136.921 116.55 137.7C116.367 138.395 116.225 139.098 116.082 139.8C115.94 140.493 115.816 141.187 115.533 141.84C115.179 142.657 114.661 143.382 114.191 144.133C114.327 143.482 114.372 142.81 114.391 142.147C114.42 141.133 114.391 140.113 114.518 139.104C114.655 138.028 115.042 137.002 115.535 136.038C116.019 135.093 116.618 134.206 117.371 133.451C117.814 133.007 118.336 132.549 118.704 132.01C118.613 132.831 118.563 133.656 118.509 134.481C118.446 135.433 118.371 136.386 118.207 137.325C118.041 138.281 117.768 139.201 117.4 140.099C117.022 141.019 116.556 141.915 115.961 142.709V142.707ZM123.516 138.519C123.306 138.604 123.098 138.689 122.89 138.776C123.065 138.61 123.238 138.441 123.404 138.268C123.961 137.694 124.475 137.081 124.949 136.438C125.357 135.883 125.698 135.292 126.02 134.684C126.659 133.486 127.291 132.211 128.433 131.407C128.539 131.333 128.42 131.171 128.312 131.245C127.684 131.675 127.193 132.257 126.784 132.891C126.422 133.453 126.116 134.05 125.802 134.639C125.467 135.267 125.107 135.87 124.679 136.442C123.97 137.387 123.167 138.256 122.285 139.04C122.264 139.048 122.244 139.058 122.223 139.067C122.144 139.075 122.065 139.079 121.984 139.075C121.89 139.069 121.844 139.162 121.869 139.226C121.851 139.234 121.834 139.243 121.815 139.251C122.227 138.424 122.56 137.56 122.899 136.699C123.3 135.684 123.716 134.664 124.292 133.731C124.899 132.746 125.663 131.849 126.486 131.038C127.318 130.217 128.231 129.477 129.217 128.849C129.932 128.393 130.672 127.964 131.328 127.427C130.912 128.171 130.589 128.963 130.288 129.763C129.932 130.715 129.61 131.679 129.194 132.605C128.765 133.565 128.227 134.44 127.528 135.225C126.69 136.169 125.74 137.012 124.698 137.727C124.307 137.995 123.918 138.271 123.514 138.519H123.516ZM132.07 136.071C133.282 135.3 134.177 134.135 135.017 132.993C135.911 131.774 136.795 130.493 138.036 129.593C138.145 129.515 138.022 129.349 137.914 129.428C137.234 129.921 136.664 130.52 136.131 131.169C135.181 132.328 134.389 133.613 133.355 134.703C132.846 135.24 132.272 135.723 131.621 136.079C131.461 136.167 131.296 136.243 131.13 136.314C130.822 136.374 130.512 136.436 130.205 136.5C130.835 136.046 131.355 135.431 131.81 134.813C132.44 133.961 132.977 133.047 133.569 132.172C134.193 131.25 134.932 130.435 135.795 129.728C137.44 128.385 139.409 127.56 141.37 126.783C140.686 127.417 140.122 128.167 139.617 128.949C138.492 130.68 137.6 132.663 135.994 134.023C134.846 134.995 133.488 135.617 132.072 136.073L132.07 136.071ZM153.567 130.302C153.288 130.288 152.999 130.271 152.71 130.269C153.074 130.224 153.436 130.178 153.8 130.136C155.984 129.886 158.194 129.643 160.282 128.926C160.417 128.88 160.338 128.677 160.203 128.721C159.592 128.916 158.972 129.086 158.344 129.222C156.408 129.647 154.428 129.815 152.467 130.083C153.216 129.697 153.979 129.353 154.775 129.063C156.452 128.451 158.178 127.927 159.964 127.771C161.601 127.63 163.244 127.738 164.882 127.749C164.059 128.252 163.304 128.868 162.422 129.276C160.538 130.151 158.496 130.481 156.429 130.418C155.476 130.389 154.52 130.35 153.567 130.302ZM134.258 136.38C134.457 136.349 134.659 136.32 134.859 136.291C134.875 136.314 134.9 136.33 134.925 136.337C135.736 136.548 136.587 136.482 137.408 136.633C138.194 136.778 138.939 137.089 139.69 137.346C140.432 137.599 141.193 137.775 141.971 137.889C143.489 138.111 145.03 138.078 146.542 137.837C146.698 137.812 146.677 137.568 146.519 137.591C145.664 137.715 144.799 137.785 143.934 137.777C142.37 137.763 140.842 137.475 139.367 136.958C138.656 136.71 137.937 136.442 137.184 136.345C136.647 136.274 136.1 136.274 135.564 136.206C135.734 136.173 135.903 136.14 136.073 136.111C136.323 136.073 136.574 136.036 136.824 135.997C137.419 135.92 138.02 135.872 138.621 135.854C139.713 135.816 140.804 135.86 141.892 135.93C142.959 136.001 144.03 136.073 145.078 136.291C146.977 136.685 148.643 137.792 150.541 138.161C149.462 138.61 148.339 138.959 147.189 139.17C146.045 139.38 144.872 139.458 143.714 139.361C142.506 139.257 141.339 138.953 140.22 138.49C139.076 138.018 137.995 137.402 136.847 136.938C136.017 136.602 135.117 136.571 134.254 136.38H134.258ZM147.058 132.638C146.746 132.786 146.43 132.927 146.112 133.063C146.415 132.777 146.654 132.421 146.881 132.073C147.268 131.478 147.576 130.847 147.84 130.19C148.368 128.876 148.774 127.477 149.674 126.353C149.766 126.242 149.589 126.101 149.499 126.212C149.015 126.814 148.661 127.502 148.362 128.211C148.091 128.855 147.863 129.517 147.596 130.163C147.326 130.827 147.008 131.455 146.611 132.052C146.347 132.448 146.06 132.846 145.658 133.113C145.355 133.314 145.02 133.47 144.687 133.625C144.677 133.629 144.666 133.633 144.656 133.636C145.105 132.806 145.305 131.905 145.388 130.955C145.469 130.039 145.502 129.11 145.808 128.234C146.168 127.199 146.856 126.281 147.603 125.487C149.027 123.97 150.82 122.89 152.604 121.845C152.163 122.701 151.812 123.613 151.477 124.511C150.766 126.418 150.169 128.395 149.142 130.165C148.649 131.013 148.046 131.807 147.297 132.448C147.22 132.514 147.141 132.576 147.06 132.638H147.058ZM164.408 109.727C164.325 110.606 164.267 111.491 164.117 112.361C163.969 113.222 163.768 114.076 163.452 114.89C163.142 115.684 162.693 116.399 162.171 117.069C161.644 117.745 161.037 118.356 160.542 119.055C160.303 119.391 160.112 119.741 159.968 120.129C159.87 120.392 159.783 120.661 159.679 120.922C159.677 120.906 159.675 120.891 159.673 120.875C159.675 120.475 159.81 120.056 159.866 119.677C159.958 119.061 160.07 118.449 160.268 117.857C160.457 117.282 160.704 116.717 160.971 116.176C161.228 115.651 161.54 115.174 161.906 114.718C162.233 114.312 162.576 113.902 162.767 113.41C162.819 113.278 162.618 113.186 162.564 113.319C162.324 113.906 161.875 114.37 161.497 114.868C161.133 115.344 160.854 115.873 160.617 116.422C160.367 116.998 160.124 117.583 159.958 118.188C159.8 118.76 159.731 119.343 159.621 119.925C159.606 120 159.592 120.077 159.575 120.155C159.563 120.052 159.55 119.948 159.54 119.845C159.49 119.362 159.482 118.872 159.496 118.387C159.546 116.646 160.035 114.915 161.052 113.489C161.572 112.757 162.193 112.108 162.817 111.466C163.36 110.906 163.928 110.349 164.408 109.731V109.727Z" fill="#D56A3E"/>
<path d="M1.34018 109.372C1.50655 110.274 1.50031 111.201 1.6334 112.108C1.75818 112.954 1.93495 113.798 2.21362 114.606C2.49229 115.415 2.89158 116.157 3.39485 116.849C3.89604 117.537 4.48458 118.155 5.01488 118.818C5.32267 119.202 5.60134 119.604 5.78435 120.062C5.9424 120.456 6.05886 120.866 6.23979 121.25C6.18364 121.986 6.47478 122.713 6.83872 123.342C7.30456 124.142 7.90349 124.859 8.5357 125.528C9.95609 127.031 11.5699 128.372 13.2128 129.629C13.2814 129.68 13.3521 129.734 13.4208 129.786C12.8405 129.481 12.2562 129.191 11.6406 128.953C10.79 128.625 9.92905 128.319 9.05145 128.066C8.19048 127.817 7.30872 127.628 6.41655 127.529C5.52647 127.431 4.63015 127.417 3.73591 127.427C2.70233 127.44 1.67084 127.489 0.63726 127.485C0.481288 127.485 0.445934 127.67 0.576951 127.74C1.46287 128.215 2.2261 128.889 3.11618 129.359C4.02498 129.838 5.01904 130.161 6.0235 130.377C7.02173 130.59 8.03243 130.68 9.05145 130.667C10.0289 130.655 11.0042 130.58 11.9796 130.549C12.853 130.52 13.8159 130.414 14.6644 130.69C16.4009 131.9 18.2413 132.968 20.1983 133.785C22.2925 134.657 24.4969 135.19 26.7242 135.596C26.0233 135.588 25.3204 135.607 24.6175 135.644C23.5215 135.702 22.4172 135.764 21.3337 135.945C20.2794 136.121 19.2936 136.467 18.312 136.882C17.2244 137.342 16.1409 137.823 14.9576 137.974C14.8203 137.993 14.8162 138.177 14.9326 138.229C17.0913 139.185 19.4413 139.767 21.8162 139.664C23.0162 139.61 24.1974 139.367 25.3225 138.953C26.4954 138.519 27.5976 137.926 28.7289 137.4C29.0513 137.251 29.3715 137.103 29.7147 137.006C30.0224 136.919 30.3386 136.859 30.6526 136.807C31.2016 136.714 31.7548 136.639 32.2851 136.467C33.6556 136.681 35.0219 136.915 36.3736 137.228C38.7382 137.775 41.057 138.546 43.2822 139.512C43.2822 139.512 43.2863 139.512 43.2863 139.514C42.1051 139.23 40.901 139.04 39.6927 138.944C37.5174 138.772 35.2735 138.901 33.1918 139.589C32.0854 139.956 31.0331 140.493 30.1264 141.229C30.0474 141.293 30.0703 141.413 30.1618 141.452C31.3368 141.942 32.595 142.18 33.8656 142.217C35.0967 142.253 36.3258 142.116 37.5424 141.948C38.7527 141.78 39.9672 141.627 41.1651 141.392C42.338 141.162 43.5151 140.897 44.713 140.851C45.2246 140.833 45.7445 140.857 46.2477 140.961C49.2341 142.601 51.9792 144.732 53.8737 147.563C55.8078 150.449 57.746 155.082 54.9967 158.081C54.8408 158.251 54.6744 158.413 54.4997 158.57C54.9718 157.522 55.0342 156.323 54.847 155.185C54.6078 153.738 53.9985 152.331 53.1375 151.143C52.1497 149.781 50.8292 148.645 49.3485 147.845C48.4896 147.381 47.5745 147.037 46.6325 146.794C46.6158 146.771 46.5888 146.753 46.5514 146.749C46.2457 146.703 45.9795 146.498 45.7465 146.309C45.4991 146.108 45.2724 145.88 45.0249 145.679C44.4073 145.175 43.7043 144.752 42.9661 144.448C42.234 144.147 41.4521 143.988 40.6702 143.88C39.9049 143.776 39.1312 143.735 38.3597 143.735C37.5029 143.735 36.6461 143.78 35.7893 143.832C35.6853 143.838 35.6333 143.985 35.7019 144.058C36.6378 145.055 37.8751 145.592 39.204 145.847C40.5495 146.106 41.9283 146.108 43.2863 146.251C43.565 146.28 43.8395 146.318 44.114 146.369C41.6372 146.145 39.1395 146.419 36.6752 146.769C36.6565 146.753 36.6336 146.742 36.6045 146.74C35.6458 146.635 34.7099 146.334 33.8822 145.835C33.1357 145.383 32.4806 144.802 31.7922 144.274C31.0935 143.737 30.3593 143.287 29.5213 143.005C28.6478 142.711 27.7349 142.549 26.824 142.42C25.7966 142.275 24.7568 142.174 23.744 141.94C23.6089 141.908 23.5215 142.132 23.6442 142.201C25.3183 143.119 26.5224 144.641 28.0967 145.696C28.8599 146.208 29.6918 146.628 30.5777 146.879C31.4366 147.122 32.3308 147.215 33.2188 147.286C30.873 147.636 28.5168 147.968 26.1481 148.063C23.3448 148.175 20.2295 147.97 17.8296 146.365C17.7755 146.33 17.7235 146.293 17.6694 146.255C17.6736 146.214 17.6632 146.168 17.6278 146.139C17.345 145.895 17.1537 145.551 16.979 145.225C16.8043 144.898 16.6379 144.566 16.4653 144.238C16.1097 143.561 15.7895 142.862 15.3922 142.205C14.9992 141.552 14.5292 140.951 13.9427 140.459C13.2273 139.858 12.4267 139.361 11.6177 138.899C11.1831 138.65 10.7422 138.426 10.2805 138.225C9.79596 138.013 9.301 137.817 8.8518 137.539C8.73326 137.466 8.55857 137.615 8.67088 137.727C9.8729 138.923 10.9543 140.229 11.9754 141.579C12.957 142.874 13.82 144.35 15.2446 145.215C15.5586 145.405 15.8997 145.542 16.2345 145.691C16.5672 145.839 16.9228 145.988 17.1932 146.237C17.2244 146.266 17.2618 146.27 17.2972 146.262C19.3227 147.912 22.0741 148.37 24.63 148.442C26.4434 148.494 28.2506 148.349 30.0495 148.14C29.8582 148.196 29.6689 148.256 29.4838 148.328C28.7102 148.627 28.0281 149.126 27.5186 149.777C26.4039 151.199 26.2105 153.096 25.1644 154.555C24.8878 154.941 24.5676 155.295 24.2452 155.643C24.0102 155.898 23.7212 156.209 23.7482 156.58C23.7524 156.641 23.8168 156.696 23.8771 156.701C25.4868 156.804 27.2191 156.174 28.3816 155.059C29.0201 154.445 29.4235 153.683 29.6668 152.839C29.9247 151.95 30.0391 151.021 30.3843 150.159C30.5756 149.682 30.846 149.251 31.2058 148.884C31.5551 148.525 31.9544 148.222 32.3225 147.885C32.335 147.874 32.3433 147.862 32.3496 147.849C32.595 147.816 32.8383 147.783 33.0837 147.75C36.3175 147.315 39.57 146.728 42.8455 146.819C44.4239 146.863 46.0086 147.078 47.5017 147.607C49.0282 148.146 50.4257 149.014 51.5716 150.159C51.5778 150.165 51.5841 150.173 51.5924 150.179C50.8354 149.819 50.0535 149.512 49.2362 149.315C48.1048 149.041 46.9402 148.934 45.7777 148.942C44.7234 148.948 43.6877 149.147 42.6853 149.472C41.5686 149.835 40.4705 150.362 39.5368 151.079C39.4661 151.133 39.4785 151.232 39.5409 151.286C40.2002 151.846 41.0965 152.022 41.92 152.192C42.8683 152.389 43.8146 152.495 44.7857 152.478C45.7528 152.459 46.7136 152.345 47.664 152.171C48.6164 151.997 49.5543 151.728 50.5214 151.641C51.0579 151.593 51.6153 151.608 52.1352 151.751C52.5386 151.86 52.9046 152.045 53.2353 152.292C53.5368 152.806 53.7926 153.351 53.9944 153.925C54.4581 155.252 54.6598 156.786 54.1586 158.133C54.0401 158.452 53.8821 158.751 53.6866 159.031C53.5576 159.215 53.7261 159.416 53.8966 159.416C53.9424 159.443 54.0006 159.451 54.0609 159.42C55.8265 158.539 56.8206 156.775 56.9246 154.839C57.0306 152.895 56.3839 150.95 55.525 149.232C54.664 147.514 53.5389 145.915 52.1664 144.564C51.6672 142.899 51.9355 141.063 51.765 139.353C51.6589 138.295 51.3345 137.294 50.8853 136.332C50.434 135.366 49.8601 134.398 49.1301 133.615C48.7682 133.225 48.3752 132.866 48.0133 132.477C47.6681 132.104 47.3312 131.697 47.1794 131.204C47.1337 131.055 46.9028 131.136 46.9236 131.281C47.2002 133.225 47.1586 135.198 47.4664 137.139C47.7492 138.917 48.3794 140.677 49.3401 142.209C48.3835 141.529 47.3811 140.911 46.3496 140.35C45.7382 140.016 45.1185 139.703 44.4884 139.406C43.5775 137.647 43.0867 135.696 42.1134 133.961C41.5561 132.966 40.8344 132.062 40.0421 131.241C39.2435 130.412 38.3618 129.637 37.4051 128.99C36.33 128.261 35.1238 127.68 34.2254 126.72C34.1256 126.613 33.9654 126.741 34.0486 126.863C35.2298 128.603 35.6894 130.682 36.5067 132.589C36.9227 133.559 37.4426 134.475 38.1351 135.277C38.969 136.241 39.9173 137.112 40.9592 137.848C41.0653 137.922 41.1734 137.999 41.2795 138.074C40.691 137.86 40.0962 137.659 39.4972 137.47C38.4949 137.157 37.4842 136.892 36.4631 136.66C35.6582 136.26 35.0302 135.567 34.4937 134.861C33.8469 134.009 33.3062 133.082 32.7135 132.195C32.1083 131.289 31.4137 130.481 30.584 129.77C29.7313 129.036 28.7747 128.435 27.7723 127.927C26.5848 127.326 25.3391 126.855 24.1038 126.362C23.9915 126.316 23.9104 126.474 24.004 126.546C25.6843 127.852 26.6181 129.83 27.7161 131.594C28.2652 132.477 28.8683 133.337 29.6398 134.046C30.4633 134.803 31.447 135.377 32.4702 135.82C32.5908 135.872 32.7135 135.924 32.8362 135.972C32.5762 135.93 32.3142 135.889 32.0522 135.849C29.2301 135.426 26.3831 135.084 23.6193 134.357C22.9767 134.187 22.3424 133.994 21.7164 133.779C21.209 132.96 20.9864 132.05 20.9012 131.094C20.818 130.172 20.8014 129.241 20.5352 128.345C20.2232 127.303 19.5848 126.376 18.8715 125.564C18.1374 124.73 17.2743 124.019 16.3634 123.387C15.3278 122.668 14.2318 122.042 13.14 121.412C13.0423 121.356 12.8759 121.443 12.9466 121.567C13.4478 122.442 13.8429 123.354 14.1965 124.297C14.5645 125.28 14.8952 126.275 15.2654 127.257C15.9433 129.056 16.7586 130.881 18.1394 132.257C17.3866 131.871 16.6483 131.451 15.9309 130.997C13.8866 129.703 11.9629 128.2 10.1474 126.602C9.43826 125.978 8.75406 125.321 8.13433 124.606C7.53748 123.916 6.96142 123.153 6.64947 122.288C6.54133 121.99 6.4727 121.675 6.4727 121.358C6.4727 121.356 6.47686 121.354 6.47686 121.349C6.5039 121.252 6.51846 121.153 6.5247 121.051C6.54549 120.933 6.56629 120.815 6.58085 120.696C6.61204 120.468 6.62868 120.238 6.65571 120.008C6.7077 119.575 6.72018 119.136 6.7181 118.698C6.71394 117.834 6.63076 116.967 6.42071 116.126C6.21275 115.288 5.87585 114.488 5.41417 113.759C4.9213 112.975 4.29741 112.283 3.65688 111.615C2.92693 110.856 2.19698 110.11 1.52526 109.3C1.45871 109.219 1.31522 109.277 1.33602 109.385L1.34018 109.372ZM13.8907 143.648C13.3459 143.011 12.8821 142.304 12.3768 141.637C11.8756 140.972 11.3619 140.314 10.8275 139.676C10.3886 139.151 9.93529 138.642 9.46529 138.148C10.0414 138.42 10.6382 138.65 11.1976 138.963C11.9983 139.413 12.7865 139.889 13.5123 140.453C14.1486 140.947 14.6685 141.533 15.0928 142.215C15.5087 142.883 15.8394 143.602 16.2075 144.296C16.3967 144.655 16.5839 145.016 16.7814 145.37C16.8521 145.497 16.9249 145.621 17.0019 145.743C17.0019 145.743 17.0019 145.743 16.9998 145.743C16.9436 145.708 16.8854 145.675 16.8272 145.644C16.2407 145.231 15.7395 144.73 15.3506 144.097C15.0553 143.617 14.7808 143.131 14.4439 142.675C14.1257 142.242 13.7784 141.834 13.4145 141.438C12.9819 140.967 12.5286 140.518 12.069 140.074C11.9629 139.97 11.7778 140.113 11.886 140.221C12.6804 141.025 13.4915 141.819 14.1736 142.721C14.8016 143.55 15.2259 144.516 15.9662 145.254C15.8726 145.213 15.7811 145.173 15.6917 145.128C14.9909 144.786 14.3919 144.236 13.8907 143.65V143.648ZM30.3697 149.501C29.9247 150.289 29.7583 151.183 29.5504 152.053C29.3424 152.92 29.0804 153.782 28.4981 154.478C27.9803 155.098 27.2877 155.567 26.5515 155.892C25.7717 156.238 24.9107 156.437 24.0539 156.41C24.1101 156.16 24.3908 155.907 24.5468 155.743C24.8254 155.447 25.0937 155.138 25.337 154.81C25.8486 154.122 26.173 153.326 26.4788 152.53C26.7782 151.748 27.0652 150.948 27.531 150.246C27.9886 149.56 28.6145 149.014 29.3674 148.674C29.9101 148.43 30.4841 148.283 31.0623 148.142C30.2283 148.587 29.4797 149.193 29.1448 150.094C28.939 150.648 28.914 151.266 28.7851 151.84C28.652 152.428 28.471 153.013 28.1882 153.548C27.8804 154.13 27.425 154.64 26.8073 154.897C26.6472 154.964 26.7553 155.204 26.9176 155.142C28.0572 154.702 28.6166 153.513 28.9202 152.41C29.0721 151.863 29.1698 151.303 29.2551 150.741C29.3611 150.051 29.7188 149.46 30.245 149.006C30.6193 148.683 31.0456 148.434 31.4927 148.225C31.0623 148.598 30.6567 148.987 30.3697 149.497V149.501ZM33.7263 147.037C32.7696 146.964 31.7964 146.894 30.8647 146.653C29.0866 146.195 27.6246 145.065 26.2999 143.845C25.7301 143.32 25.1457 142.81 24.5052 142.377C26.0899 142.655 27.7161 142.736 29.2551 143.223C30.1181 143.496 30.8668 143.927 31.5843 144.471C32.2705 144.989 32.9194 145.561 33.6556 146.013C34.1276 146.303 34.6309 146.531 35.155 146.699C34.2171 146.595 33.2937 146.342 32.4119 146.017C31.7402 145.77 31.0643 145.49 30.4446 145.134C29.8623 144.798 29.3403 144.381 28.8059 143.977C28.3255 143.617 27.7432 143.173 27.113 143.177C26.9571 143.177 26.9321 143.42 27.0902 143.42C27.3688 143.42 27.6558 143.556 27.8929 143.689C28.157 143.836 28.4045 144.012 28.6457 144.195C29.1802 144.599 29.7001 145.018 30.2824 145.354C30.9001 145.712 31.5676 145.996 32.2352 146.247C32.8903 146.494 33.5599 146.695 34.2462 146.834C34.5623 146.898 34.8825 146.948 35.2049 146.979C35.0947 146.995 34.9824 147.012 34.8721 147.028C34.7287 147.049 34.5852 147.072 34.4437 147.093C34.1983 147.078 33.9571 147.051 33.7304 147.033L33.7263 147.037ZM41.764 145.849C40.4393 145.756 39.0772 145.665 37.8335 145.167C37.2034 144.914 36.6274 144.553 36.1386 144.087C37.5757 144.006 39.0189 143.956 40.4518 144.131C41.2254 144.224 42.0053 144.367 42.7332 144.649C43.4922 144.941 44.1993 145.368 44.8357 145.874C44.8731 145.903 44.9105 145.934 44.9459 145.965C44.3677 145.617 43.7646 145.31 43.1179 145.101C42.1217 144.777 41.0819 144.755 40.0483 144.659C39.464 144.605 38.8921 144.506 38.3306 144.338C38.1829 144.294 38.0956 144.506 38.2432 144.564C39.1666 144.935 40.2022 144.935 41.1817 145.018C41.7017 145.063 42.2236 145.126 42.729 145.264C43.2406 145.403 43.7335 145.609 44.2055 145.853C44.4676 145.99 44.7234 146.139 44.975 146.295C44.5695 146.181 44.1619 146.079 43.7418 146.025C43.0867 145.938 42.4254 145.897 41.7661 145.851L41.764 145.849ZM48.3794 151.748C46.4578 152.157 44.4613 152.372 42.5127 152.026C42.0198 151.939 41.5249 151.84 41.0424 151.705C40.6265 151.589 40.1918 151.442 39.8425 151.178C41.4375 150.088 43.3841 149.369 45.3202 149.284C46.4141 149.236 47.5329 149.334 48.6081 149.537C49.5398 149.713 50.4278 150.018 51.295 150.395C51.6132 150.534 51.9293 150.681 52.2287 150.853C52.2891 150.923 52.3473 150.994 52.4034 151.064C51.3096 150.679 50.1616 150.457 48.9928 150.465C47.5496 150.476 46.1458 150.863 44.7234 151.052C43.9061 151.16 43.0846 151.21 42.2611 151.133C42.0822 151.116 42.0552 151.39 42.234 151.411C43.6503 151.57 45.0561 151.315 46.4453 151.064C47.1607 150.934 47.8782 150.797 48.606 150.76C49.3256 150.722 50.0493 150.774 50.7584 150.903C51.4364 151.027 52.0977 151.228 52.732 151.494C52.7882 151.572 52.8443 151.651 52.8984 151.73C51.5446 151.048 49.8393 151.438 48.3773 151.748H48.3794ZM41.8472 140.988C41.2753 141.1 40.7055 141.22 40.1315 141.311C39.5076 141.411 38.8817 141.49 38.2557 141.579C37.0038 141.761 35.7435 141.94 34.4749 141.956C33.1065 141.975 31.7527 141.782 30.4758 141.289C32.0688 140.068 34.0507 139.471 36.0284 139.247C38.2058 139.002 40.4331 139.181 42.5751 139.622C42.9078 139.69 43.2364 139.767 43.565 139.85C43.0264 139.844 42.4857 139.881 41.9678 139.929C40.4726 140.066 38.994 140.35 37.4946 140.43C36.7709 140.47 35.9931 140.472 35.2881 140.281C35.1487 140.244 35.0676 140.453 35.207 140.491C36.5317 140.849 37.9354 140.677 39.2789 140.507C40.7575 140.321 42.2528 140.049 43.748 140.107C44.1182 140.122 44.4884 140.157 44.8502 140.229C45.0956 140.35 45.3389 140.472 45.5802 140.596C44.3366 140.503 43.0077 140.758 41.8472 140.986V140.988ZM48.6019 140.097C48.2338 139.201 47.9613 138.279 47.795 137.323C47.6307 136.382 47.5558 135.431 47.4934 134.479C47.4394 133.654 47.3894 132.829 47.2979 132.008C47.666 132.547 48.1901 133.005 48.631 133.449C49.3817 134.203 49.9827 135.091 50.4673 136.036C50.9602 136.998 51.347 138.026 51.4842 139.102C51.6132 140.111 51.582 141.131 51.6111 142.145C51.6298 142.81 51.6756 143.482 51.8107 144.131C51.3387 143.378 50.8229 142.653 50.4694 141.838C50.1866 141.187 50.0618 140.491 49.9204 139.798C49.7769 139.096 49.6354 138.393 49.4524 137.698C49.2486 136.919 48.9908 136.154 48.6393 135.427C48.5748 135.292 48.3627 135.387 48.4272 135.52C49.0573 136.832 49.3589 138.256 49.6417 139.674C49.7789 140.356 49.8892 141.05 50.1408 141.701C50.3716 142.302 50.7023 142.858 51.0496 143.401C51.1058 143.488 51.1619 143.577 51.218 143.664C50.8354 143.33 50.4423 143.011 50.041 142.704C49.4483 141.911 48.9804 141.015 48.6019 140.095V140.097ZM41.3003 137.725C40.2584 137.01 39.3101 136.167 38.4699 135.223C37.7712 134.438 37.2325 133.561 36.8041 132.603C36.3903 131.675 36.0679 130.711 35.7102 129.761C35.4108 128.961 35.0863 128.171 34.6704 127.425C35.3255 127.962 36.0659 128.393 36.7812 128.847C37.7691 129.475 38.68 130.217 39.5118 131.036C40.3353 131.847 41.0986 132.744 41.7058 133.729C42.2819 134.662 42.6978 135.681 43.0992 136.697C43.4381 137.555 43.7709 138.422 44.1827 139.249C44.1639 139.241 44.1473 139.232 44.1286 139.224C44.1535 139.16 44.1078 139.067 44.0142 139.073C43.9352 139.077 43.8541 139.073 43.775 139.064C43.7543 139.056 43.7335 139.046 43.7127 139.037C42.8309 138.254 42.0261 137.385 41.319 136.44C40.8906 135.868 40.5329 135.265 40.196 134.637C39.882 134.048 39.5763 133.451 39.2144 132.889C38.8047 132.253 38.3139 131.672 37.6859 131.243C37.5777 131.171 37.4592 131.33 37.5653 131.405C38.707 132.209 39.3392 133.484 39.9776 134.682C40.3 135.29 40.641 135.88 41.0487 136.436C41.5207 137.081 42.0365 137.692 42.5938 138.266C42.7623 138.44 42.9328 138.608 43.1075 138.774C42.8995 138.687 42.6916 138.6 42.4815 138.517C42.0781 138.268 41.6892 137.993 41.2982 137.725H41.3003ZM30.0079 134.023C28.4003 132.663 27.5082 130.68 26.3852 128.949C25.8777 128.167 25.3142 127.415 24.632 126.783C26.5931 127.562 28.5625 128.385 30.2075 129.728C31.0706 130.435 31.8089 131.25 32.4327 132.172C33.0254 133.049 33.562 133.963 34.1921 134.813C34.6475 135.431 35.1675 136.044 35.7976 136.5C35.4898 136.436 35.182 136.374 34.8721 136.314C34.7058 136.243 34.5415 136.167 34.3814 136.079C33.7284 135.723 33.1544 135.24 32.6469 134.703C31.6134 133.613 30.821 132.328 29.8706 131.169C29.3403 130.522 28.7684 129.921 28.0884 129.428C27.9803 129.349 27.8576 129.515 27.9657 129.593C29.2072 130.493 30.0911 131.774 30.9853 132.993C31.8234 134.135 32.7197 135.302 33.9322 136.071C32.5159 135.615 31.1579 134.993 30.01 134.021L30.0079 134.023ZM9.57343 130.418C7.50628 130.481 5.46408 130.151 3.57994 129.276C2.69817 128.866 1.94327 128.252 1.11973 127.748C2.75848 127.738 4.40139 127.63 6.03806 127.771C7.82446 127.925 9.55056 128.451 11.2267 129.063C12.0212 129.353 12.7844 129.697 13.5351 130.083C11.574 129.815 9.59215 129.647 7.65809 129.222C7.03005 129.083 6.4124 128.913 5.7989 128.721C5.66373 128.677 5.5847 128.88 5.71988 128.926C7.80783 129.643 10.0185 129.886 12.2021 130.136C12.566 130.178 12.93 130.224 13.2918 130.269C13.0027 130.271 12.7137 130.29 12.435 130.302C11.4825 130.35 10.528 130.389 9.57343 130.418ZM29.149 136.938C28.001 137.402 26.9217 138.018 25.7758 138.49C24.657 138.952 23.4903 139.257 22.2821 139.361C21.1216 139.46 19.9508 139.382 18.807 139.17C17.657 138.959 16.534 138.61 15.4546 138.161C17.3533 137.792 19.0212 136.685 20.9178 136.291C21.966 136.073 23.039 136.001 24.1038 135.93C25.1935 135.86 26.2854 135.814 27.3751 135.854C27.9761 135.874 28.575 135.922 29.1719 135.997C29.4214 136.034 29.6731 136.073 29.9226 136.111C30.0932 136.14 30.2637 136.171 30.4321 136.206C29.8956 136.274 29.3486 136.276 28.8121 136.345C28.0593 136.442 27.3418 136.71 26.6285 136.958C25.154 137.475 23.6255 137.763 22.0616 137.777C21.1965 137.785 20.3334 137.713 19.4766 137.591C19.3186 137.568 19.2957 137.812 19.4538 137.837C20.9677 138.078 22.5067 138.111 24.0248 137.889C24.8026 137.775 25.5637 137.599 26.3061 137.346C27.059 137.089 27.8035 136.778 28.5875 136.633C29.409 136.482 30.2595 136.548 31.0706 136.337C31.0976 136.33 31.1205 136.312 31.1371 136.291C31.3368 136.32 31.5385 136.351 31.7381 136.38C30.8751 136.571 29.9746 136.602 29.1448 136.938H29.149ZM18.7072 132.446C17.9585 131.805 17.3554 131.011 16.8625 130.163C15.8331 128.393 15.2363 126.416 14.5271 124.509C14.1923 123.611 13.8408 122.697 13.4 121.843C15.1843 122.89 16.9769 123.968 18.4015 125.485C19.146 126.279 19.8343 127.197 20.1962 128.231C20.5019 129.108 20.5352 130.037 20.6163 130.953C20.6995 131.903 20.8991 132.804 21.3483 133.633C21.3379 133.629 21.3275 133.625 21.3171 133.623C20.9844 133.468 20.6495 133.312 20.3459 133.111C19.9425 132.844 19.6576 132.446 19.3935 132.05C18.9962 131.455 18.6781 130.825 18.4077 130.161C18.1436 129.515 17.9148 128.853 17.6424 128.209C17.345 127.5 16.9915 126.812 16.5048 126.21C16.4133 126.098 16.2387 126.237 16.3302 126.351C17.2327 127.475 17.6382 128.872 18.1644 130.188C18.4285 130.845 18.7363 131.476 19.1231 132.07C19.3498 132.419 19.5869 132.775 19.8926 133.061C19.5744 132.927 19.2604 132.784 18.9463 132.636C18.8673 132.574 18.7862 132.512 18.7093 132.446H18.7072ZM3.18481 111.462C3.8087 112.104 4.43051 112.753 4.95042 113.485C5.96735 114.913 6.45607 116.642 6.50598 118.383C6.52054 118.868 6.51222 119.357 6.46231 119.84C6.45191 119.944 6.43943 120.048 6.42695 120.151C6.41032 120.073 6.39576 119.996 6.3812 119.921C6.27306 119.341 6.20235 118.756 6.0443 118.184C5.87793 117.579 5.63461 116.994 5.38506 116.418C5.14798 115.869 4.86931 115.34 4.50537 114.863C4.12688 114.368 3.6756 113.902 3.43852 113.315C3.38445 113.182 3.18273 113.273 3.23472 113.406C3.42605 113.895 3.77126 114.306 4.09569 114.714C4.4617 115.17 4.77157 115.647 5.03152 116.171C5.29979 116.712 5.54519 117.278 5.73444 117.852C5.92992 118.445 6.0443 119.057 6.1358 119.672C6.19195 120.052 6.32713 120.471 6.32921 120.871C6.32713 120.887 6.32505 120.902 6.32297 120.918C6.21899 120.657 6.13165 120.388 6.0339 120.124C5.89041 119.739 5.69908 119.389 5.45992 119.051C4.96289 118.352 4.35772 117.741 3.83157 117.065C3.30959 116.395 2.86039 115.68 2.55052 114.886C2.23442 114.072 2.03269 113.217 1.88504 112.357C1.73531 111.487 1.67708 110.601 1.59389 109.723C2.07636 110.34 2.64202 110.896 3.18481 111.458V111.462Z" fill="#D56A3E"/>
<path d="M35.4482 75.0409C35.4482 77.2963 35.9993 79.2178 37.1057 80.7994C38.21 82.3831 39.6366 83.7678 41.3897 84.9473C43.1408 86.1289 44.9854 87.2835 46.9257 88.4111C48.918 89.5388 50.8313 90.7348 52.6634 91.9952C54.4935 93.2576 56.0179 94.7625 57.2282 96.5058C58.4406 98.2512 59.0458 100.413 59.0458 102.99C59.0458 105.566 58.4406 107.731 57.2282 109.797C56.0158 111.866 54.1982 113.516 51.7733 114.751C49.3485 115.987 46.3039 116.605 42.6417 116.605C41.4563 116.605 40.2834 116.524 39.1271 116.362C37.9688 116.2 36.7834 115.918 35.5709 115.516C34.3585 115.114 33.0525 114.563 31.6508 113.864C31.3805 113.703 31.2058 113.501 31.1247 113.261C31.0436 113.018 30.975 112.712 30.923 112.334L29.7105 101.862C29.6565 101.595 29.7771 101.448 30.0745 101.419C30.3698 101.392 30.5445 101.487 30.6006 101.7C30.8148 103.311 31.2474 104.922 31.8942 106.532C32.5409 108.143 33.4164 109.621 34.5207 110.962C35.625 112.305 36.9976 113.392 38.6426 114.225C40.2855 115.058 42.2112 115.473 44.4198 115.473C46.0897 115.473 47.7056 115.164 49.2674 114.546C50.8292 113.928 52.1082 112.923 53.1064 111.526C54.1025 110.131 54.6016 108.224 54.6016 105.807C54.6016 103.176 54.0214 100.987 52.8652 99.242C51.7068 97.4966 50.2386 95.9938 48.4605 94.7314C46.6824 93.4711 44.7962 92.275 42.8039 91.1473C40.9177 90.0197 39.0876 88.8381 37.3095 87.6027C35.5314 86.3672 34.0902 84.9038 32.986 83.2123C31.8817 81.5208 31.3285 79.4148 31.3285 76.89C31.3285 74.0978 32.0272 71.7761 33.4289 69.923C34.8285 68.0698 36.6482 66.6892 38.8838 65.7751C41.1194 64.863 43.4507 64.4049 45.8734 64.4049C47.273 64.4049 48.7412 64.5542 50.2781 64.8485C51.8129 65.1449 53.4163 65.6404 55.0862 66.3389C55.5167 66.5006 55.8265 66.7017 56.0158 66.9421C56.203 67.1847 56.2986 67.4396 56.2986 67.707L57.0265 76.2453C57.0265 76.4609 56.8768 76.5666 56.5815 76.5666C56.2861 76.5666 56.1094 76.4588 56.0553 76.2453C55.9472 75.0658 55.6643 73.8428 55.2068 72.5804C54.7493 71.3201 54.0755 70.151 53.1875 69.0772C52.2995 68.0035 51.1682 67.1308 49.7935 66.4591C48.4189 65.7875 46.7635 65.4517 44.8232 65.4517C42.5065 65.4517 40.6619 65.9347 39.2872 66.9007C37.9126 67.8666 36.9289 69.0751 36.3383 70.5262C35.7456 71.9751 35.4503 73.48 35.4503 75.0368L35.4482 75.0409Z" fill="#323C60"/>
<path d="M124.789 109.153C124.789 110.711 124.951 111.891 125.274 112.697C125.596 113.504 126.284 114.04 127.335 114.308C128.385 114.577 129.934 114.71 131.981 114.71C132.089 114.71 132.143 114.872 132.143 115.193C132.143 115.514 132.089 115.676 131.981 115.676C130.687 115.676 129.26 115.649 127.699 115.595C126.135 115.543 124.413 115.514 122.527 115.514C120.748 115.514 119.064 115.541 117.475 115.595C115.886 115.649 114.445 115.676 113.152 115.676C112.989 115.676 112.908 115.514 112.908 115.193C112.908 114.872 112.989 114.71 113.152 114.71C115.198 114.71 116.747 114.577 117.797 114.308C118.848 114.04 119.549 113.501 119.898 112.697C120.247 111.891 120.424 110.711 120.424 109.153V71.859C120.424 70.3023 120.249 69.1353 119.898 68.3558C119.546 67.5785 118.848 67.0396 117.797 66.7452C116.747 66.4508 115.198 66.3016 113.152 66.3016C112.989 66.3016 112.908 66.1399 112.908 65.8186C112.908 65.4973 112.989 65.3356 113.152 65.3356C114.445 65.3356 115.884 65.375 117.475 65.4559C119.064 65.5367 120.748 65.5761 122.527 65.5761C124.411 65.5761 126.149 65.5367 127.738 65.4559C129.327 65.375 130.741 65.3356 131.981 65.3356C132.089 65.3356 132.143 65.4973 132.143 65.8186C132.143 66.1399 132.089 66.3016 131.981 66.3016C129.932 66.3016 128.397 66.4633 127.374 66.7846C126.351 67.1059 125.663 67.6697 125.313 68.4761C124.962 69.2824 124.787 70.464 124.787 72.0207V109.155L124.789 109.153Z" fill="#323C60"/>
<path d="M87.4307 176.918C94.8841 173.334 103.174 171.039 111.496 171.308L109.939 171.339C109.502 171.333 108.83 171.377 108.385 171.414C101.144 171.916 94.0523 174.003 87.4307 176.918Z" fill="#D56A3E"/>
<path d="M87.9672 179.065C91.0825 177.687 94.6283 177.602 97.9682 177.987C99.6277 178.211 101.337 178.597 102.928 179.096C103.643 179.299 104.613 179.697 105.324 179.944C106.102 180.278 106.873 180.626 107.645 180.972C106.511 180.524 105.259 179.998 104.089 179.631C99.087 177.958 93.0062 177.158 87.9672 179.063V179.065Z" fill="#D56A3E"/>
<path d="M79.8879 177.513C75.6766 176.965 71.4092 177.017 67.1772 177.216C63.0096 177.411 58.6465 177.906 54.506 178.466C58.1599 177.828 61.872 177.361 65.5738 177.102C70.3341 176.82 75.1713 176.723 79.8879 177.51V177.513Z" fill="#D56A3E"/>
<path d="M79.4199 179.542C72.37 178.783 64.6941 181.864 58.8711 185.645C57.4902 186.503 56.0532 187.591 54.7451 188.544C56.0116 187.543 57.4299 186.416 58.7983 185.535C64.5007 181.667 72.4345 178.522 79.4199 179.542Z" fill="#D56A3E"/>
<path d="M102.19 167.219C101.244 166.29 100.354 165.278 99.557 164.217C98.8437 163.232 98.1512 162.188 97.8143 161.008C98.6212 158.479 96.9429 154.839 95.7222 152.723C95.2813 152.972 94.8612 153.245 94.4515 153.535C95.3499 150.387 95.4373 147.383 95.1461 144.095C95.0338 142.906 94.8737 141.72 94.6304 140.549C95.092 145.095 94.7718 150.291 93.0436 154.622C92.6942 154.912 92.3511 155.212 92.0121 155.515C90.9993 156.454 89.9762 157.466 89.1089 158.539C90.7519 157.391 92.4967 155.983 94.1084 154.8C94.5451 154.481 94.9839 154.161 95.4289 153.869C96.4833 155.76 97.8621 158.5 97.7332 160.708C97.7332 160.701 97.729 160.695 97.7269 160.689C97.7269 160.697 97.7311 160.705 97.7311 160.714C97.7145 160.994 97.6749 161.265 97.6063 161.524C97.6812 161.371 97.7457 161.213 97.7997 161.052C98.2281 162.903 99.4114 164.503 100.555 165.989C100.942 166.47 101.341 166.939 101.766 167.395C101.231 168.209 100.578 168.956 99.923 169.679C97.7956 171.965 95.456 174.055 93.0727 176.074C90.6853 178.064 88.2459 180.046 85.6068 181.679C85.1015 181.963 84.5899 182.286 84.0783 182.371C82.7182 182.247 81.4476 181.671 80.1645 181.155C77.3029 179.913 74.5432 178.435 71.8667 176.831C68.7826 174.969 65.605 173.016 63.4879 170.04C63.2155 169.656 62.9597 169.244 62.7663 168.833C64.6816 166.655 65.2348 163.402 65.3949 160.589C65.5031 160.907 65.6258 161.217 65.763 161.524C65.2805 159.271 65.2389 156.933 65.6133 154.665C66.2704 154.781 66.938 154.945 67.5848 155.134C69.9056 155.824 72.1496 156.954 73.6656 158.9C72.8816 157.186 71.457 155.959 69.7933 155.127C69.1216 153.537 68.949 151.73 68.8762 149.997C68.7639 144.601 69.7039 139.207 70.9101 133.957C69.392 139.39 67.1106 148.836 68.556 154.595C67.5016 154.207 66.3952 153.952 65.3242 153.815L64.9395 153.772L64.8916 154.141C64.5859 156.278 64.6899 158.521 65.3887 160.573C65.083 163.348 64.3842 166.619 62.3878 168.663L62.2942 168.755C62.5001 169.318 62.7787 169.822 63.0886 170.309C65.1121 173.466 68.3106 175.583 71.4051 177.581C72.1392 178.041 72.8795 178.491 73.6261 178.928C74.5016 181.619 75.5352 184.679 76.4066 187.247C76.0801 187.659 74.955 189.079 74.955 189.079C74.5141 189.622 73.9048 190.342 74.3914 191.069C75.4125 192.402 78.7108 192.095 80.0917 191.461C81.0379 191.096 81.4351 190.261 81.5952 189.336C81.7595 188.499 81.8157 187.666 81.8344 186.832C81.8614 185.504 81.7949 184.175 81.666 182.854C82.4458 183.136 83.2486 183.356 84.0783 183.404C84.775 183.352 85.3573 182.999 85.9063 182.682C85.9313 184.233 86.0394 185.783 86.2703 187.319C86.395 188.142 86.5572 188.963 86.8276 189.774C87.1083 190.677 87.5991 191.444 88.5911 191.691C90.0448 192.145 93.3535 192.031 94.1957 190.578C94.5867 189.797 93.8879 189.156 93.3826 188.675L91.7043 187.04C92.2741 183.905 92.9604 180.104 93.4949 176.909C95.1274 175.462 96.7017 173.951 98.2406 172.407C99.6901 170.865 101.158 169.333 102.227 167.482L102.308 167.335L102.192 167.223L102.19 167.219ZM81.4476 186.807C81.327 187.985 81.2646 189.262 80.7031 190.302C79.8546 191.521 76.5064 191.639 75.2607 191.013C74.3831 190.586 75.0444 189.952 75.4271 189.44L76.9265 187.46L77.018 187.34C76.0988 184.811 74.9987 181.803 73.9921 179.136C75.8617 180.218 77.7791 181.219 79.761 182.085C80.3495 182.326 80.9526 182.587 81.5682 182.813C81.5744 184.146 81.5495 185.479 81.4497 186.807H81.4476ZM91.1387 187.077L91.1096 187.216L91.2135 187.321L92.9542 189.094C93.2245 189.405 93.8651 189.836 93.6425 190.3C92.9854 191.216 90.9806 191.359 89.9117 191.316C89.1984 191.266 88.3041 191.173 87.83 190.619C87.6054 190.338 87.4348 189.973 87.2914 189.602C86.5136 187.382 86.2266 184.994 85.9375 182.66C86.002 182.622 86.0665 182.585 86.1309 182.55C88.6327 180.945 90.9702 179.119 93.1975 177.164C92.5154 180.319 91.7584 184.019 91.1408 187.077H91.1387Z" fill="#D56A3E"/>
<path d="M87.5555 47.3927C87.4578 47.6974 87.3517 48.0042 87.2373 48.3151C86.9586 49.0717 86.6321 49.8428 86.2765 50.6098C86.1892 50.7964 86.1018 50.9808 86.0124 51.1653C84.2697 54.7742 81.9509 58.2381 80.857 59.9896C79.1039 62.6119 77.2884 65.3502 76.6416 68.4657C75.9532 71.6145 76.9806 74.7155 78.0308 77.6818C78.5652 79.1971 79.1143 80.7207 79.6092 82.2629C79.9815 83.4196 80.3267 84.5866 80.6386 85.762C80.8716 86.5518 81.0462 87.4514 80.9859 88.2743C80.8175 91.1577 79.7735 93.9105 78.6921 96.5493C77.4194 99.5405 75.8908 102.42 74.2375 105.195C72.6529 107.95 71.3593 110.892 70.2904 113.902C67.3706 122.257 64.9208 133.733 69.209 141.929C63.6397 132.869 67.0982 118.224 71.1368 109.039C71.7981 107.552 72.5156 106.089 73.3475 104.679C75.0028 101.922 76.5127 99.0969 77.775 96.1596C78.8398 93.6203 79.8796 90.996 80.0751 88.237C80.1354 87.439 79.996 86.7694 79.7756 85.9879C79.4741 84.825 79.1372 83.6725 78.7753 82.5262C78.2949 80.9985 77.7604 79.4832 77.2343 77.9575C76.1633 74.9104 75.1276 71.5689 75.8763 68.3082C76.573 65.062 78.4322 62.2926 80.2539 59.5958C82.0216 56.9114 83.7269 54.1772 85.1743 51.3208C85.3053 51.0472 85.453 50.7425 85.6069 50.417C85.6963 50.2284 85.7899 50.0315 85.8835 49.8283C86.3722 48.7649 86.89 47.5212 87.2311 46.2774C87.4494 45.4752 87.5971 44.6709 87.6116 43.9143C87.6387 42.569 87.2539 41.375 86.1413 40.5977C85.3282 40.0815 84.434 39.7893 83.5023 39.6006C83.6125 39.4244 83.7227 39.2503 83.835 39.0803C84.7646 39.2793 85.661 39.5861 86.4803 40.1106C87.2456 40.6164 87.726 41.3025 87.9818 42.1192C88.0754 42.4156 88.1378 42.7307 88.1731 43.0582C88.3146 44.3289 88.0567 45.8193 87.5555 47.3927Z" fill="#D56A3E"/>
<path d="M99.4697 126.264C99.2368 131.834 98.0202 137.549 95.0546 142.329C96.4397 140.055 97.3568 137.512 98.0368 134.95C99.5133 129.256 99.5071 123.286 98.5775 117.5C98.1553 114.594 97.7457 111.684 97.2611 108.79C96.7578 105.931 96.2858 102.998 95.0941 100.345C94.5035 99.0285 93.6862 97.8325 92.7233 96.7483C91.7418 95.6538 90.6583 94.6319 89.7453 93.4773C84.0721 86.444 77.2218 73.5837 81.8989 64.7159C83.4024 62.162 85.2221 59.7927 87.0376 57.4586C87.6345 56.6917 88.2397 55.9268 88.8282 55.1494C88.9384 55.0064 89.0466 54.8613 89.1526 54.7183C89.1921 54.6664 89.2296 54.6125 89.2691 54.5607C89.3294 54.4778 89.3897 54.3949 89.45 54.312C89.5374 54.1918 89.6247 54.0715 89.71 53.9513C89.7661 53.8704 89.8223 53.7896 89.8805 53.7067C90.4004 52.9563 90.8891 52.1831 91.3196 51.3809C91.4236 51.186 91.5234 50.9912 91.6211 50.7922C91.7085 50.6139 91.7917 50.4357 91.8728 50.2532C93.0332 47.6435 93.4429 44.7186 93.2786 41.8787C93.0769 37.4593 90.704 33.6949 86.4242 32.2128C86.4366 31.8998 86.4325 31.5889 86.4075 31.2842C87.9589 31.7671 89.4126 32.5362 90.6541 33.6245C92.9979 35.6621 94.1479 38.7839 94.3143 41.8124C94.5472 45.9333 93.5781 49.8159 91.3986 53.232C91.3113 53.3667 91.2219 53.5015 91.1324 53.6362C90.9286 53.9389 90.7186 54.2394 90.4961 54.5338C90.415 54.6436 90.3339 54.7514 90.2507 54.8613C90.1966 54.9338 90.1425 55.0064 90.0885 55.0789C90.0427 55.1411 89.9949 55.2033 89.9491 55.2655C89.8951 55.3381 89.841 55.4085 89.7869 55.479C89.7828 55.4832 89.7786 55.4894 89.7744 55.4935C89.6684 55.6345 89.5602 55.7754 89.4542 55.9143C87.1208 58.9449 84.6273 61.8428 82.6704 65.1367C79.2577 71.5502 82.3002 79.7817 85.4446 85.7578C87.1853 88.9584 89.2213 92.0263 91.6898 94.7107C92.713 95.7616 93.759 96.8914 94.5576 98.1247C96.6081 101.278 97.1613 105.083 97.7561 108.711C98.199 111.621 98.565 114.538 98.9435 117.45C99.3491 120.363 99.5903 123.321 99.4697 126.264Z" fill="#D56A3E"/>
<path d="M95.0629 142.319C95.0629 142.319 95.0546 142.331 95.0505 142.34C95.0463 142.344 95.0421 142.35 95.0401 142.356C94.9922 142.433 94.9423 142.514 94.8882 142.597C94.9444 142.508 94.9985 142.42 95.0484 142.34C95.0505 142.335 95.0525 142.333 95.0546 142.329C95.0567 142.325 95.0588 142.323 95.0629 142.319Z" fill="#D56A3E"/>
<path d="M81.7304 31.3878C82.6288 31.4002 83.5272 31.4956 84.4048 31.6677C84.5754 31.4148 84.75 31.1639 84.9268 30.9152C83.8766 30.7141 82.7994 30.6353 81.7242 30.6685C81.7242 30.909 81.7242 31.1494 81.7283 31.3878H81.7304Z" fill="#D56A3E"/>
<path d="M81.9342 38.8004C81.1585 38.7216 80.3808 38.6677 79.6279 38.5848C79.5219 38.5724 79.4137 38.562 79.3077 38.5496C79.2536 38.5434 79.1974 38.5371 79.1434 38.533C78.351 38.4501 77.5317 38.3423 76.7664 38.1143C76.627 38.0728 76.4898 38.0251 76.3546 37.9754C75.4853 37.6541 74.7138 37.1441 74.1814 36.2963C73.9401 35.9357 73.8278 35.5833 73.8133 35.2474C73.8091 35.1479 73.8133 35.0505 73.8237 34.9531C73.8694 34.5841 74.0316 34.2359 74.2666 33.9166C74.3394 33.8192 74.4185 33.7239 74.5016 33.6306C74.8323 33.2699 75.2503 32.9527 75.685 32.6895C75.7473 32.6563 75.8097 32.6232 75.8763 32.5921C77.5545 31.8085 79.4158 31.423 81.2833 31.3939C81.2833 31.1576 81.2896 30.9234 81.2937 30.6891C80.0834 30.7596 78.8834 30.969 77.7417 31.311C77.0242 31.5142 76.3026 31.821 75.6621 32.2024C75.034 32.5382 74.51 32.9279 74.119 33.359C74.0337 33.4523 73.9568 33.5477 73.8861 33.6451C73.6656 33.9436 73.5097 34.2587 73.4223 34.5862C73.3994 34.6691 73.3828 34.7541 73.3703 34.8412C73.2913 35.3863 73.4015 35.9647 73.7509 36.5637C74.5058 37.7992 75.687 38.4003 76.9826 38.7299C77.1033 38.761 77.2239 38.79 77.3445 38.8149C77.9705 38.9496 78.6152 39.0326 79.2453 39.0989C79.3347 39.1113 79.4262 39.1217 79.5156 39.1321C79.6758 39.1507 79.838 39.1694 80.0002 39.186C80.674 39.2544 81.3561 39.3083 82.032 39.3849C81.9966 39.1922 81.9634 38.9973 81.9301 38.8045L81.9342 38.8004Z" fill="#D56A3E"/>
<path d="M96.5395 62.6844C96.5291 62.7756 96.4729 62.8544 96.396 62.8855C96.3856 62.8917 96.3752 62.8958 96.3627 62.8979C96.3045 62.9104 96.2442 62.8979 96.1901 62.8565C95.98 62.701 95.7742 62.5372 95.5745 62.3714C94.4973 61.478 93.5178 60.4747 92.7025 59.6124C91.6877 58.5386 90.652 57.3654 89.6247 56.1237C89.5685 56.0532 89.5103 55.9848 89.4542 55.9143C89.5602 55.7754 89.6684 55.6345 89.7744 55.4935C89.7994 55.5246 89.8223 55.5536 89.8472 55.5847C89.8264 55.5474 89.8077 55.5143 89.7869 55.479C89.841 55.4085 89.895 55.3381 89.9491 55.2655C89.9616 55.2945 89.9762 55.3215 89.9907 55.3484C90.182 55.7112 90.3796 56.0843 90.5688 56.4554C90.6188 56.5155 90.6666 56.5714 90.7144 56.6316C90.7373 56.6585 90.7602 56.6834 90.783 56.7124C90.5293 56.1879 90.2985 55.6428 90.0885 55.0789C90.1425 55.0064 90.1966 54.9338 90.2507 54.8613C90.5377 55.6677 90.8642 56.418 91.2323 57.1145C91.0347 55.9807 91.0617 54.8033 91.1283 53.6818C91.1303 53.6673 91.1303 53.6507 91.1324 53.6362C91.2219 53.5015 91.3113 53.3667 91.3986 53.232C91.3799 53.4766 91.3612 53.7212 91.3487 53.9637C91.2884 55.1556 91.2759 56.4201 91.5692 57.6245C92.322 58.4868 93.0457 59.2745 93.7632 60.0104C94.5784 60.8499 95.4581 61.7288 96.4459 62.4647C96.5166 62.5186 96.5499 62.5973 96.5395 62.6844Z" fill="#323C60"/>
<path d="M99.7255 23.4279C99.7047 23.3636 99.6818 23.2994 99.6589 23.2351C99.5965 23.0548 99.53 22.8661 99.4946 22.6775C99.4593 22.4951 99.4634 22.3023 99.4655 22.1157C99.4655 22.0494 99.4655 21.981 99.4655 21.9147C99.4614 21.4586 99.3969 21.0834 99.2617 20.7331C99.1037 20.3185 98.9019 19.9122 98.7065 19.5184L98.6129 19.3298C98.355 18.8053 98.1346 18.3887 97.9162 18.0135C97.3609 17.0599 96.7703 16.293 96.109 15.669C95.456 15.0513 94.7115 14.6036 93.8963 14.3424C93.1268 14.0957 92.2846 13.9734 91.4132 13.9755C92.2409 13.5775 92.9937 13.0675 93.628 12.4747C94.6345 11.5315 95.2397 10.5262 95.4248 9.4835C95.5288 8.90101 95.4997 8.29158 95.3354 7.72153C95.1711 7.14527 94.8404 6.66643 94.2644 6.17101L94.1666 6.08809C93.7112 5.69839 93.2828 5.32941 93.027 4.77388C92.9334 4.56866 92.8419 4.36137 92.7525 4.15408C92.4925 3.56123 92.2263 2.94765 91.877 2.3859C91.1553 1.223 90.0365 0.420791 88.7222 0.128513C87.3787 -0.172057 86.0311 0.0704717 85.0225 0.793913C84.6981 1.02608 84.4236 1.31836 84.1719 1.5982C84.1303 1.6438 84.0867 1.69562 84.043 1.74745C83.8558 1.9651 83.6458 2.20763 83.3921 2.29884C83.3817 2.29884 83.3713 2.29884 83.3588 2.29884C83.3338 2.29884 83.3109 2.3092 83.2943 2.32578C83.2278 2.33822 83.1591 2.34237 83.0863 2.34651C83.0552 2.34651 83.026 2.35066 82.9969 2.35273C82.8202 2.36724 82.66 2.39834 82.5082 2.44808C82.2129 2.54551 81.9821 2.68854 81.8199 2.87303C81.5433 3.19018 81.4538 3.63585 81.5453 4.23492C81.5932 4.55208 81.6826 4.86508 81.7679 5.16773C81.8178 5.34392 81.8698 5.52426 81.9114 5.70253C82.1505 6.71411 82.3231 7.75885 82.4895 8.77042C82.5248 8.98393 82.5602 9.19744 82.5956 9.41095C82.7287 10.209 82.8472 10.8578 82.9657 11.4486C82.9948 11.5916 83.024 11.7409 83.0552 11.8922C82.7203 11.061 82.3252 10.2214 81.8157 9.44619C81.4372 8.86785 80.9589 8.29987 80.3995 7.75885C79.8297 7.20746 79.2702 6.80117 78.69 6.51304C78.0932 6.21868 77.411 6.03212 76.4773 5.90775C75.9636 5.83934 75.5518 5.8352 75.1838 5.89739C74.8905 5.94506 74.6181 6.06322 74.354 6.17515C74.2625 6.21454 74.171 6.25392 74.0774 6.29124C73.6719 6.45292 73.3329 6.47572 72.9793 6.36793C72.865 6.33269 72.7547 6.29331 72.6424 6.25392C72.4158 6.17515 72.1828 6.09224 71.9374 6.05285C71.2304 5.93677 70.4734 6.04663 69.5521 6.39903C68.5352 6.78873 67.2001 7.57643 66.6157 9.12074C66.4576 9.53532 66.3661 9.88564 66.3224 10.2214C66.3037 10.3645 66.2954 10.5054 66.2892 10.6422C66.2767 10.8827 66.2621 11.1086 66.1997 11.3408C66.1852 11.3968 66.1686 11.4548 66.1519 11.5129C66.0001 12.0518 65.8441 12.6074 66.1124 13.1422C66.5533 14.019 67.72 14.0833 68.8055 14.0294C69.2984 14.0045 69.7975 13.961 70.2821 13.9174C71.4134 13.8179 72.5842 13.7143 73.7342 13.8573C74.6784 13.9734 75.6329 14.2325 76.3587 14.4439C76.7871 14.5704 77.1448 14.6782 77.4921 14.844C77.6107 14.9 77.7292 14.958 77.8478 15.0161C77.9559 15.07 78.0682 15.1239 78.1805 15.1777C78.0328 15.1777 77.8873 15.1777 77.7521 15.1777C76.0281 15.2026 74.4039 15.4369 72.9211 15.8742C71.2595 16.3634 69.9722 17.0205 68.9865 17.8829C68.4062 18.3907 67.9633 18.9504 67.668 19.5453C67.2895 20.3082 67.1065 21.1373 67.1501 21.8815C67.1938 22.6402 67.5681 23.3056 68.2315 23.8051C68.373 23.9109 68.5851 24.0643 68.818 24.172L68.8887 24.2031C69.0488 24.2757 69.2007 24.3441 69.313 24.483C69.3899 24.5783 69.4502 24.6841 69.5126 24.7981C69.5563 24.8748 69.5999 24.9556 69.6519 25.0302C69.7788 25.2189 69.941 25.3785 70.1219 25.5485C70.4671 25.876 70.8623 26.1848 71.326 26.4958C71.8023 26.8129 72.1787 26.9933 72.5821 27.0948C72.9481 27.1881 73.3786 27.2876 73.7883 27.3353C74.1398 27.3767 74.3519 27.6027 74.5952 27.8639L74.6326 27.9033C74.9384 28.2329 75.3127 28.4277 75.6683 28.5894C76.0884 28.7801 76.5064 28.9169 76.9078 28.9915C77.3112 29.0682 77.8249 29.1076 78.3323 28.9874C78.6401 28.9148 78.9479 28.7842 79.2266 28.5666C79.7589 28.1541 80.0979 27.4845 80.3579 26.8813C80.5783 26.3693 80.7592 25.7931 80.9277 25.0634C81.0358 24.5908 81.1273 24.1057 81.2147 23.6372C81.3561 22.8765 81.5037 22.0909 81.7325 21.3384C82.1214 20.0553 82.7557 19.0914 83.6146 18.4695C82.3772 21.5478 81.6223 24.9639 81.3727 28.6329C81.327 29.3108 81.3041 29.9948 81.2916 30.6809C81.2875 30.9152 81.2812 31.1494 81.2812 31.3857C81.2812 33.8235 81.5017 36.3026 81.9322 38.7943C81.9654 38.987 81.9966 39.1798 82.0341 39.3747C82.0465 39.4493 82.059 39.5239 82.0715 39.5985C82.1755 40.1334 82.2878 40.6661 82.4063 41.1968C82.4063 41.203 82.4022 41.2113 82.4001 41.2175L82.3793 41.2652L82.398 41.2734C82.4042 41.2921 82.4167 41.3087 82.4354 41.3211C82.9075 43.3691 83.5106 45.3591 84.2447 47.2724C83.8579 46.7728 83.5813 46.1987 83.313 45.641C83.1654 45.3343 83.024 45.0254 82.8805 44.7165C82.7266 44.3849 82.5664 44.0387 82.4021 43.7029C81.8095 42.4757 81.092 41.033 80.283 39.6462C80.1915 39.4908 80.0875 39.3166 79.9919 39.1591C79.8296 39.1425 79.6674 39.1239 79.5073 39.1031C79.603 39.2607 79.7111 39.4348 79.8026 39.5903C80.5014 40.7511 81.2022 42.0363 81.9488 43.5163C82.0985 43.8107 82.2441 44.1154 82.3876 44.4118C82.5748 44.8015 82.764 45.1954 82.9657 45.5851C82.9325 45.5374 82.8992 45.4918 82.8659 45.4441C82.6018 45.071 82.3252 44.6834 82.0445 44.3123C81.4913 43.5785 80.8611 42.8965 80.2518 42.2353C79.9835 41.9451 79.7069 41.6466 79.4408 41.346C78.9125 40.7532 78.4051 40.1209 77.9143 39.5094C77.7292 39.2772 77.54 39.043 77.3466 38.8067C77.2259 38.7798 77.1053 38.7528 76.9847 38.7217C77.2322 39.0223 77.4755 39.3228 77.7147 39.6172C78.1015 40.094 78.4987 40.5873 78.9021 41.0641C79.2931 41.5263 79.7111 41.9762 80.1146 42.4115C80.6074 42.9401 81.1149 43.4873 81.5745 44.0594C81.9717 44.5528 82.3502 45.0731 82.7141 45.5789C82.999 45.9748 83.2902 46.379 83.5959 46.7728C83.2964 46.4951 82.9616 46.2235 82.5831 45.9499C82.0694 45.5809 81.5349 45.2202 81.0192 44.8699C80.2788 44.3683 79.5135 43.8501 78.794 43.2987C76.5833 41.6072 74.6638 39.4348 73.2435 37.0157C72.5863 35.8984 72.0955 34.6319 71.7773 33.2389C72.1953 33.7696 72.7028 34.2277 73.1977 34.6733C73.2559 34.7252 73.3142 34.7791 73.3703 34.8309C73.3849 34.7459 73.4015 34.6609 73.4223 34.5759C73.3869 34.5448 73.3516 34.5117 73.3162 34.4806C73.1624 34.3396 73.0064 34.1986 72.8525 34.0556C72.449 33.6825 72.0061 33.241 71.6692 32.731C71.6525 32.646 71.638 32.5631 71.6234 32.4802C72.0518 32.5175 72.4636 32.7227 72.8483 32.9466C73.2081 33.1539 73.5512 33.3944 73.8861 33.6348C73.9568 33.5374 74.0337 33.442 74.119 33.3488C73.7842 33.1104 73.441 32.8678 73.0812 32.6564C72.5988 32.3745 72.0248 32.0926 71.4196 32.134C71.3635 32.1361 71.3136 32.161 71.2824 32.2024C71.2532 32.2398 71.2428 32.2895 71.2512 32.3413C71.5194 33.7737 71.8751 35.2952 72.6487 36.7048C73.2726 37.8428 74.0628 38.985 74.9966 40.096C75.9324 41.2113 76.9494 42.2145 78.0162 43.0769C78.9292 43.8169 79.9253 44.474 80.8903 45.1083C81.1606 45.2866 81.431 45.4648 81.6992 45.6452C82.3689 46.0929 83.0593 46.5573 83.6458 47.1273C84.0097 47.4797 84.3528 47.8901 84.6752 48.3482C84.879 48.8416 85.0932 49.3308 85.3157 49.8138C85.4072 50.0169 85.507 50.2159 85.6069 50.4128C85.6963 50.2242 85.7899 50.0273 85.8835 49.8241C85.3469 48.7131 84.8374 47.4548 84.3009 45.9209C83.729 44.2833 83.2382 42.5607 82.843 40.7988C82.841 40.7863 82.8389 40.7739 82.8347 40.7614C83.0468 40.3634 83.2694 39.9737 83.5023 39.5965C83.6125 39.4203 83.7227 39.2462 83.835 39.0762C83.8537 39.0492 83.8704 39.0223 83.887 38.9953C84.3882 38.2491 84.7875 37.565 85.1098 36.9059C85.8897 35.3097 86.3285 33.7924 86.4158 32.3973C86.42 32.3351 86.4221 32.2729 86.4242 32.2087C86.4242 32.2087 86.4221 32.2087 86.42 32.2087H86.4221C86.4346 31.8957 86.4304 31.5847 86.4054 31.28C86.3638 31.2676 86.3223 31.2551 86.2827 31.2427C86.3243 31.2551 86.3659 31.2676 86.4054 31.28C86.3638 30.7597 86.2703 30.2539 86.1226 29.7668L86.1434 29.7398L86.1143 29.7357C86.1101 29.7233 86.1081 29.7129 86.1039 29.7005C86.0873 29.6445 86.0415 29.603 85.9854 29.5947C85.9292 29.5844 85.8731 29.6093 85.8377 29.6569L85.8148 29.686L85.7899 29.6818L85.7982 29.7088L85.7088 29.829C85.4467 30.1855 85.1847 30.5441 84.9268 30.9069C84.7501 31.1556 84.5754 31.4065 84.4048 31.6593C83.3255 33.2617 82.4146 34.9594 82.1879 36.9121C82.1817 36.9722 82.1755 37.0323 82.1713 37.0945C81.903 35.1853 81.7554 33.2762 81.7304 31.3795C81.7263 31.1391 81.7263 30.8986 81.7263 30.6602C81.7263 30.4218 81.7263 30.1855 81.7325 29.9471C81.8053 26.1848 82.3834 22.6671 83.444 19.4977C83.5771 19.1038 83.7206 18.6996 83.8745 18.2995C84.1033 18.1586 84.357 18.0301 84.6315 17.916C84.9206 18.0985 85.0662 18.5089 85.1764 18.8862C85.3594 19.5101 85.4592 20.1589 85.5299 20.7124C85.6193 21.4006 85.6838 22.1033 85.7462 22.7811L85.7628 22.9573C85.8065 23.4382 85.8502 23.9357 85.9438 24.4187C86.0394 24.9162 86.2412 25.4572 86.5781 26.1247C86.9732 26.9062 87.4369 27.4348 87.9964 27.7416C88.327 27.9219 88.6889 28.0276 89.0736 28.0546C89.4251 28.0795 89.7516 27.982 90.0677 27.8908C90.1675 27.8618 90.2673 27.8328 90.3692 27.8058C90.5689 27.754 90.7831 27.7146 90.991 27.7685C91.1803 27.8162 91.357 27.924 91.5172 28.0339C91.5962 28.0877 91.6731 28.1437 91.7522 28.1997C92.01 28.3862 92.2762 28.579 92.5923 28.6806C93.601 29.0102 94.726 29.0371 95.7596 28.7946C96.5062 28.6184 97.205 28.3013 97.7748 27.8556C99.0267 26.8793 100.289 25.1318 99.7255 23.4237V23.4279ZM84.3653 47.5813C84.3695 47.5979 84.3757 47.6124 84.382 47.629C84.3736 47.6165 84.3632 47.602 84.3528 47.5896C84.357 47.5875 84.3612 47.5854 84.3653 47.5813ZM85.9271 30.1938C86.0041 30.5193 86.0581 30.8509 86.0935 31.1888C86.1247 31.4935 86.1372 31.8045 86.1351 32.1175C86.1788 32.132 86.2204 32.1465 86.264 32.161C86.2204 32.1465 86.1767 32.134 86.133 32.1195C86.1268 32.8699 86.029 33.6452 85.8294 34.4412C85.507 35.7347 84.8686 37.0883 83.8246 38.701C83.7498 38.8171 83.6811 38.9269 83.6104 39.0389C83.496 39.2171 83.3879 39.3933 83.2881 39.5612C83.0967 39.8805 82.9241 40.1831 82.7702 40.4754C82.7536 40.3945 82.7349 40.3158 82.7183 40.2349C82.7203 40.1209 82.7224 40.009 82.7224 39.895C82.7224 39.7582 82.7266 39.6027 82.7307 39.4617C82.7307 39.4058 82.7328 39.3519 82.737 39.2959C82.7453 39.1653 82.7619 39.0326 82.7827 38.9021C82.8805 38.2677 83.1009 37.6397 83.3172 37.0302L83.3338 36.9846C83.7934 35.687 84.4215 33.9831 85.1847 32.3206C85.2512 32.1755 85.3136 32.0345 85.3739 31.8957C85.4842 31.6386 85.584 31.3878 85.6609 31.1245C85.6651 31.11 85.6693 31.0955 85.6734 31.0789C85.7088 30.9566 85.742 30.8343 85.7753 30.712C85.8211 30.54 85.8689 30.3659 85.923 30.1938H85.9271ZM82.8846 35.2392C83.2652 34.1551 83.8496 33.0399 84.723 31.736C84.7334 31.7215 84.7417 31.707 84.7521 31.6925C84.9102 31.4562 85.0745 31.2178 85.245 30.9774C85.3968 30.7618 85.5549 30.5421 85.7171 30.3203C85.7046 30.3638 85.6942 30.4073 85.6817 30.4508C85.6297 30.6457 85.5736 30.8426 85.5154 31.0396C85.4342 31.3132 85.3386 31.5868 85.2242 31.8521C85.193 31.9268 85.1618 32.0014 85.1265 32.0739C84.7313 32.8782 84.4048 33.6079 84.1241 34.3064C83.8517 34.9864 83.573 35.7243 83.2506 36.6239L83.2423 36.6488C82.9844 37.3681 82.7183 38.1102 82.5976 38.8751C82.5956 38.8917 82.5914 38.9103 82.5893 38.9269C82.5664 39.0782 82.556 39.2316 82.5519 39.385C82.5186 39.2088 82.4874 39.0326 82.4562 38.8585C82.4333 38.7321 82.4084 38.6056 82.3876 38.4792C82.346 37.4075 82.5145 36.3026 82.8867 35.2392H82.8846ZM84.1449 2.02936L84.1844 1.9879C84.2426 1.92779 84.3009 1.8656 84.3591 1.80341C84.5587 1.58991 84.7667 1.36811 84.9975 1.18154C85.2429 0.982546 85.5341 0.808423 85.8689 0.66332C86.4221 0.420791 87.048 0.29849 87.6782 0.308855C88.9384 0.327511 90.1945 0.864391 91.0368 1.74537C91.5775 2.3092 91.9477 3.02642 92.2679 3.7167C92.3407 3.87424 92.4114 4.04214 92.48 4.20383C92.6942 4.70962 92.9147 5.23406 93.289 5.64449C93.4783 5.85178 93.6966 6.03627 93.9046 6.21454C94.1354 6.40939 94.3725 6.61253 94.5722 6.84263C94.9402 7.27172 95.1607 7.86456 95.2085 8.56106C95.2605 9.30523 95.1233 11.8798 91.2343 13.7599C91.0493 13.849 90.86 13.9319 90.6708 14.0066C90.0905 14.0542 89.502 14.1537 88.9218 14.3092C88.2958 14.4771 87.6366 14.7466 86.8463 15.1612C86.707 15.2337 86.5718 15.3083 86.4408 15.383C86.4283 15.383 86.4158 15.383 86.4034 15.3871C86.393 15.3892 86.3826 15.3933 86.3742 15.3975C86.5593 15.1985 86.7486 14.9974 86.9503 14.815C87.5971 14.2263 88.0858 13.7599 88.5287 13.3059C89.6684 12.1368 90.5522 11.0133 91.2323 9.8732C91.6981 9.09172 92.0412 8.35377 92.2804 7.61582C92.295 7.57021 92.2721 7.52254 92.2263 7.50803C92.1806 7.49144 92.1307 7.51425 92.1119 7.55985C91.5712 8.95076 90.8517 10.238 89.9741 11.3906C89.3356 12.228 88.5932 13.053 87.7239 13.8946C87.7239 13.8884 87.7239 13.8843 87.7218 13.878C87.6969 13.7765 87.5971 13.7143 87.4952 13.7371C87.3933 13.762 87.3309 13.8615 87.3538 13.963C87.3725 14.0377 87.4328 14.0915 87.5035 14.104C87.3434 14.2553 87.1811 14.4066 87.0127 14.56C86.9753 14.5932 86.9399 14.6264 86.9046 14.6595C86.9274 14.5973 86.9337 14.5269 86.917 14.4585C86.89 14.3403 86.8047 14.2512 86.7007 14.2097C86.7215 14.1724 86.7423 14.133 86.7611 14.0978C87.5118 12.6758 88.0379 11.233 88.3291 9.80894C88.4996 8.97564 88.5537 8.30195 88.5038 7.69251C88.4996 7.64277 88.458 7.60753 88.4081 7.61167C88.3624 7.61582 88.3291 7.65313 88.3312 7.70081C88.4289 9.10416 88.0109 10.5158 87.6387 11.5875C87.3122 12.5244 86.9253 13.3971 86.4803 14.1993C86.2952 14.2491 86.1808 14.4356 86.2245 14.6222C86.2245 14.6264 86.2266 14.6305 86.2287 14.6346C86.0373 14.9539 85.8356 15.2627 85.6235 15.555C85.3885 15.8825 85.1681 16.1562 84.9497 16.3925C84.9102 16.4256 84.8686 16.4588 84.8312 16.492C84.7085 16.5977 84.6003 16.7013 84.5005 16.807C84.5546 16.5583 84.617 16.3095 84.6814 16.0649C84.7209 16.0691 84.7605 16.0691 84.802 16.0587C84.9955 16.0131 85.114 15.8203 85.0682 15.6296C85.0412 15.5177 84.9643 15.4327 84.8665 15.3871C85.0204 14.8336 85.1743 14.2615 85.2762 13.6853C85.2991 13.5484 85.3261 13.4116 85.3511 13.2748C85.4363 12.8188 85.5258 12.3462 85.5466 11.8777C85.5611 11.5916 85.5341 11.3035 85.5112 11.0237C85.48 10.6796 85.4488 10.323 85.4946 9.97477C85.4987 9.93332 85.4717 9.89808 85.4322 9.89393C85.3906 9.88978 85.3531 9.91881 85.3469 9.95819C85.2991 10.3168 85.3303 10.6775 85.3594 11.0257C85.3802 11.2828 85.4031 11.5502 85.3947 11.8114C85.376 12.3213 85.2741 12.8416 85.1764 13.3432C85.1514 13.4655 85.1285 13.5899 85.1057 13.7122C85.0017 14.2677 84.8457 14.8212 84.6897 15.3602C84.6731 15.3602 84.6586 15.3622 84.6419 15.3664C84.4485 15.412 84.33 15.6048 84.3757 15.7955C84.3965 15.8805 84.4443 15.9489 84.5088 15.9965C84.4859 16.0795 84.4631 16.1624 84.4402 16.2453C84.4152 15.9717 84.3549 15.7001 84.2946 15.4472C84.226 15.1674 84.1449 14.8917 84.0555 14.6181C84.1532 14.6885 84.2801 14.7176 84.4048 14.6885C84.6378 14.6346 84.7813 14.4004 84.7272 14.1682C84.6731 13.9361 84.4381 13.7931 84.2052 13.8469C84.095 13.8718 84.0076 13.9382 83.9473 14.0252C83.6562 11.9606 83.6957 10.2484 84.0679 8.71445C84.2489 7.96406 84.5587 7.2427 84.8582 6.5462C84.9809 6.25807 85.1098 5.95957 85.2263 5.66315C85.27 5.55328 85.3157 5.44342 85.3635 5.32941C85.6755 4.58939 86.0269 3.74986 85.5757 2.9746C85.1951 2.31957 84.5462 2.27396 83.8912 2.2864C83.9847 2.20348 84.07 2.11435 84.1511 2.02936H84.1449ZM87.6699 15.3228C87.6782 15.356 87.6927 15.385 87.7094 15.4141C87.3933 15.4928 87.0834 15.5985 86.7798 15.7208C86.7839 15.6877 86.7819 15.6524 86.7735 15.6172C86.7735 15.6089 86.7673 15.6027 86.7652 15.5944C87.0668 15.4286 87.3746 15.2772 87.6844 15.1384C87.6615 15.1943 87.6532 15.2586 87.6699 15.3228ZM86.1143 15.441L86.0977 15.4576C86.0062 15.555 85.9146 15.6545 85.8211 15.7519C85.7691 15.7872 85.715 15.8203 85.6651 15.8556C85.923 15.5177 86.1496 15.1653 86.3514 14.8212C86.4325 14.8813 86.5385 14.9103 86.6467 14.8834C86.655 14.8834 86.6612 14.8772 86.6675 14.8751C86.4678 15.0658 86.2848 15.2524 86.1143 15.4389V15.441ZM86.2869 15.9344C86.133 16.0069 85.9791 16.0815 85.8273 16.1582C85.898 16.1126 85.9666 16.067 86.0373 16.0235C86.106 15.98 86.1746 15.9385 86.2432 15.897C86.2557 15.9116 86.2703 15.924 86.2869 15.9364V15.9344ZM84.2031 16.7905C84.1407 16.6557 84.07 16.521 83.9993 16.3904C84.043 16.4008 84.0887 16.4028 84.1345 16.3904C84.149 16.3862 84.1615 16.3821 84.174 16.378C84.174 16.378 84.174 16.38 84.174 16.3821C84.1886 16.5023 84.2031 16.6454 84.2052 16.7905H84.2031ZM83.0489 10.4889C82.9637 9.99136 82.8825 9.4835 82.8035 8.99222C82.6808 8.22732 82.554 7.43547 82.4084 6.66228C82.319 6.18966 82.2171 5.6818 82.0694 5.19053L82.0216 5.03506C81.8947 4.61841 81.7658 4.18932 81.772 3.75608C81.7803 3.22128 82.086 2.83779 82.6371 2.67403C82.764 2.63672 82.8909 2.62635 83.0281 2.61392C83.1633 2.60355 83.3047 2.59111 83.442 2.54966C83.5044 2.531 83.5626 2.50405 83.6187 2.47503C83.6478 2.47503 83.677 2.47503 83.7061 2.47503C84.3445 2.46881 85.0038 2.46052 85.3615 3.04093C85.819 3.7851 85.4239 4.65779 85.0766 5.43098C85.0266 5.53877 84.9788 5.64656 84.9351 5.74814C84.8374 5.97823 84.7334 6.20625 84.6315 6.43427C84.305 7.15771 83.9681 7.90602 83.783 8.69994C83.6146 9.41924 83.5168 10.1862 83.4877 10.9926C83.4732 10.862 83.4586 10.7293 83.444 10.5987C83.3193 9.49801 83.2049 8.31438 83.1945 7.10588C83.1903 6.46743 83.2007 5.81862 83.2111 5.19053V5.16151C83.2111 5.12212 83.182 5.09103 83.1425 5.09103C83.103 5.09103 83.0718 5.11798 83.0697 5.15736C82.9782 6.52962 82.9699 7.5868 83.0448 8.58179C83.1113 9.46899 83.2132 10.3645 83.311 11.233C83.3401 11.4921 83.3692 11.7512 83.3983 12.0124C83.4212 12.2156 83.4524 12.4229 83.4836 12.6239C83.496 12.7048 83.5085 12.7856 83.521 12.8685C83.3297 12.1161 83.1966 11.3429 83.0656 10.5884L83.0489 10.4951V10.4889ZM77.9642 14.8274C77.8041 14.7424 77.6502 14.6616 77.4963 14.589C76.7913 14.2636 76.0114 14.075 75.2565 13.8946L75.2295 13.8884C74.5203 13.7184 73.676 13.5402 72.7984 13.5153C71.9374 13.4925 71.0682 13.5671 70.3008 13.6334L69.9805 13.6625C69.4461 13.7101 68.8929 13.7599 68.348 13.7578C67.8926 13.7578 67.3664 13.7246 66.9089 13.5132C66.4472 13.2997 66.2081 12.8893 66.2351 12.3586C66.2476 12.1078 66.3204 11.8777 66.3994 11.631C66.4264 11.544 66.4535 11.459 66.4784 11.3698C66.547 11.1232 66.5658 10.8744 66.5824 10.634C66.5907 10.5282 66.597 10.4246 66.6094 10.3168C66.7612 8.94247 67.5848 7.74641 68.87 7.03333C69.5688 6.6457 70.2862 6.39488 70.9455 6.30575C71.3572 6.25185 71.7794 6.27465 72.162 6.37622C72.2993 6.41146 72.4366 6.46121 72.5676 6.50889C72.7506 6.57522 72.9377 6.64156 73.1353 6.67887C73.6136 6.768 74.0358 6.60217 74.4455 6.44463C74.7034 6.34306 74.9716 6.23941 75.2482 6.2021C75.6704 6.14406 76.1154 6.19174 76.4565 6.23941C76.9078 6.3016 77.3029 6.38244 77.6606 6.48402C79.1143 6.89445 80.1811 7.99101 80.9485 8.90101C81.9467 10.0826 82.5602 11.5315 83.078 12.9224C83.103 12.9888 83.1279 13.053 83.1529 13.1194C83.1051 13.1048 83.0531 13.1007 82.999 13.1131C82.843 13.1505 82.7453 13.3059 82.7827 13.4635C82.8202 13.621 82.9761 13.7164 83.1342 13.679C83.2132 13.6604 83.2777 13.6106 83.3172 13.5443C83.3276 13.5712 83.338 13.6003 83.3505 13.6272C83.6291 14.3403 83.914 15.072 84.0783 15.8203C84.0534 15.8203 84.0284 15.8203 84.0035 15.8266C83.9016 15.8514 83.8246 15.9261 83.7955 16.0193C83.6936 15.8452 83.5896 15.6711 83.4856 15.5011L83.4711 15.4762C83.3609 15.298 83.2527 15.128 83.1425 14.9622C83.1196 14.8772 83.0759 14.8026 83.0198 14.7445C83.0427 14.645 83.0427 14.5393 83.0198 14.4336C82.9449 14.1164 82.6621 13.9008 82.3502 13.8967C81.7554 13.1898 81.0691 12.5597 80.3038 12.0249C78.5444 10.7956 76.4814 10.0846 74.6971 9.54983C74.0795 9.36534 73.4618 9.2078 72.8629 9.08343C72.2827 8.9632 71.794 8.88028 71.2928 8.87407C71.2553 8.87407 71.2241 8.90101 71.22 8.93832C71.2179 8.97564 71.2449 9.0088 71.2824 9.01502C73.127 9.2617 75.0922 9.80687 77.2946 10.6837C79.3596 11.5046 80.9339 12.568 82.111 13.934C81.7741 14.0501 81.5724 14.4025 81.6576 14.7549C81.72 15.014 81.9197 15.2068 82.1609 15.269C82.2483 15.5136 82.5082 15.6587 82.7661 15.5985C82.9325 15.5592 83.0593 15.4452 83.1217 15.298C83.1467 15.3353 83.1695 15.3726 83.1945 15.412C83.3609 15.6752 83.5231 15.9509 83.6894 16.2515C83.7539 16.3697 83.8163 16.4878 83.8787 16.608C83.9619 16.7697 84.0492 16.9335 84.1428 17.0931C84.1428 17.0972 84.1407 17.1014 84.1386 17.1055C84.0097 17.033 83.8683 16.9749 83.7248 16.9356C83.8101 16.8423 83.8496 16.7096 83.8184 16.577C83.7685 16.3634 83.5522 16.2308 83.338 16.2805C83.1737 16.3199 83.0572 16.4547 83.0344 16.6122C82.9969 16.6122 82.9595 16.6184 82.9221 16.6267C82.8285 16.6495 82.7474 16.691 82.6787 16.7469C82.6309 16.7158 82.5852 16.6868 82.5394 16.6557C82.3564 16.5334 82.1713 16.4111 81.9821 16.293C81.9301 16.179 81.8157 16.1085 81.6909 16.1126C81.3831 15.9281 81.0649 15.7582 80.7322 15.6193C80.0875 15.3539 79.4033 15.242 78.769 15.2005C78.4966 15.1031 78.2325 14.9642 77.9725 14.8274H77.9642ZM81.9467 20.1527C81.4434 21.1891 81.2251 22.3396 81.013 23.4528L80.961 23.7264C80.7384 24.8996 80.5076 26.1123 79.9503 27.1777C79.6529 27.7478 79.212 28.4319 78.4488 28.6682C77.7646 28.8796 76.9494 28.7925 76.0239 28.4132C75.6558 28.2619 75.2378 28.0753 74.9467 27.781C74.8926 27.7271 74.8406 27.669 74.7907 27.6131C74.589 27.3913 74.381 27.1632 74.0774 27.0617C73.9963 27.0347 73.9131 27.0244 73.832 27.0161C73.7904 27.0119 73.7467 27.0078 73.7051 26.9995C73.57 26.9746 73.4348 26.9456 73.2996 26.9166C73.2164 26.8979 73.1312 26.8792 73.048 26.8627C72.7048 26.7922 72.2598 26.6823 71.8543 26.446C71.4071 26.1869 70.9829 25.8863 70.5898 25.5567C70.4089 25.4033 70.2301 25.2375 70.0637 25.0655C69.9285 24.9266 69.8308 24.7711 69.7268 24.6074L69.679 24.5327C69.5916 24.3959 69.4876 24.2529 69.3337 24.143C69.2339 24.0725 69.1237 24.0249 69.0176 23.9772C68.9365 23.942 68.8596 23.9088 68.7868 23.8653C68.3771 23.6227 68.0444 23.3284 67.826 23.0112C67.4288 22.4391 67.3539 21.6929 67.5993 20.7331C67.7761 20.047 68.0901 19.4251 68.5352 18.8862C69.3109 17.9451 70.4879 17.1781 72.0331 16.6018C73.2435 16.152 74.6035 15.8494 76.1882 15.6752C77.1199 15.5737 78.2034 15.4721 79.2765 15.584C79.7631 15.6338 80.2435 15.7519 80.7239 15.9323C80.6761 15.9965 80.6553 16.0795 80.6761 16.1644C80.7114 16.3158 80.8653 16.4111 81.0171 16.3759C81.1315 16.3489 81.2126 16.2577 81.2313 16.1499C81.2999 16.1831 81.3686 16.2163 81.4351 16.2515C81.3894 16.3199 81.3707 16.4049 81.3915 16.4899C81.431 16.6536 81.5953 16.7573 81.7616 16.7179C81.8573 16.6951 81.9301 16.6308 81.9675 16.55C82.0881 16.6226 82.2087 16.6951 82.3273 16.7677C81.8802 16.7345 81.431 16.7283 80.9922 16.7221C80.7301 16.7179 80.4598 16.7138 80.1936 16.7055C80.0168 16.6993 79.838 16.691 79.6612 16.6847C78.952 16.6557 78.2179 16.6267 77.4942 16.6619C76.7705 16.6972 76.0177 16.8112 75.1817 17.0123C74.3976 17.2009 73.7696 17.4123 73.2081 17.6756C72.4178 18.0487 71.848 18.4965 71.4654 19.0478C71.4404 19.0831 71.4487 19.1308 71.4841 19.1556C71.5215 19.1805 71.5693 19.1722 71.5943 19.137C72.397 18.0031 73.8819 17.5243 75.086 17.2341C75.9033 17.0392 76.6291 16.9231 77.3071 16.8837C78.1514 16.8361 79.002 16.8754 79.8692 16.9231C79.9877 16.9293 80.1083 16.9376 80.2269 16.9439C80.2373 16.9439 80.2477 16.9439 80.258 16.9439C79.3493 17.0579 78.4405 17.2755 77.5504 17.5927C75.5518 18.3057 74.0129 19.3235 72.9752 20.617C72.6632 21.0067 72.4074 21.413 72.2161 21.8255C71.979 22.3313 71.8543 22.7417 71.821 23.119C71.8168 23.1646 71.848 23.204 71.8938 23.2123C71.9063 23.2144 71.9208 23.2144 71.9333 23.2123C71.9645 23.2061 71.9894 23.1833 71.9978 23.1501L72.0248 23.0589C72.1329 22.692 72.2369 22.3479 72.4033 22.01C72.5738 21.6659 72.7901 21.328 73.0438 21.0067C73.5346 20.3869 74.1814 19.8065 74.9675 19.2779C76.4128 18.3099 78.1784 17.6217 80.075 17.29C80.6386 17.1926 81.1835 17.1325 81.7055 17.1097C81.6223 17.1408 81.537 17.176 81.4497 17.2154C81.0088 17.4185 80.5575 17.7067 80.075 18.0964C79.2474 18.7639 78.3115 19.5184 77.5836 20.4035C77.1552 20.9259 76.8537 21.4338 76.6665 21.9603C76.652 21.9997 76.6728 22.0411 76.7123 22.0556C76.7268 22.0618 76.7435 22.0618 76.758 22.0577C76.7809 22.0515 76.8017 22.0349 76.8121 22.01C77.2156 20.9798 78.0349 20.1506 78.7815 19.4749C79.1538 19.1391 79.5447 18.8157 79.9253 18.5006L79.9627 18.4695C80.2081 18.2664 80.491 18.0425 80.8029 17.8373C80.832 17.858 80.8695 17.8642 80.909 17.8559C80.9776 17.8393 81.0213 17.773 81.0109 17.7046C81.0774 17.6632 81.144 17.6238 81.2126 17.5865C81.6826 17.3273 82.086 17.1864 82.45 17.1553C82.4458 17.2154 82.45 17.2776 82.4645 17.3398C82.5415 17.6611 82.8638 17.8601 83.1882 17.7854C83.4898 17.715 83.6832 17.4289 83.6458 17.1304C83.991 17.2258 84.2967 17.4538 84.4963 17.7253C83.3609 18.2104 82.4791 19.0437 81.9426 20.1444L81.9467 20.1527ZM99.4676 24.9929C99.268 25.7164 98.8208 26.4294 98.1387 27.1114C97.5148 27.7374 96.789 28.1707 95.9821 28.3987C95.0962 28.6474 94.1604 28.6951 93.2724 28.5334C92.792 28.4443 92.4343 28.3075 92.1161 28.0898C92.0496 28.0442 91.9851 27.9986 91.9206 27.9509C91.669 27.7685 91.407 27.5799 91.0992 27.4928C90.7228 27.385 90.3526 27.4928 89.9928 27.5944L89.9179 27.6151C89.4459 27.7478 89.0861 27.7644 88.7138 27.667C88.1087 27.5094 87.5596 27.0658 87.1271 26.3859C86.7715 25.8304 86.4845 25.1919 86.316 24.5866C86.2016 24.1762 86.1538 23.7367 86.1081 23.3118L86.0914 23.1667C86.0561 22.8454 86.0228 22.5241 85.9916 22.2028C85.9583 21.8794 85.9271 21.554 85.8897 21.2306C85.8211 20.6212 85.74 19.9682 85.5985 19.3401C85.4904 18.8571 85.3594 18.3555 85.0703 17.9927C85.0142 17.9243 84.9539 17.8642 84.8873 17.8145C85.0183 17.7689 85.0953 17.6321 85.062 17.4952C85.0266 17.3481 84.879 17.2569 84.7313 17.2921C84.644 17.3128 84.5795 17.3709 84.5442 17.4476C84.5192 17.4165 84.4922 17.3854 84.4631 17.3564C84.5359 17.2589 84.6149 17.1657 84.6981 17.0765C84.9809 17.0226 85.2804 17.0102 85.5715 16.9977L85.7067 16.9915C85.7067 16.9915 85.7108 16.9915 85.715 16.9915C85.715 17.0164 85.7192 17.0413 85.7254 17.0641C85.7379 17.1159 85.7608 17.1615 85.7899 17.203C85.7608 17.1988 85.7296 17.1988 85.6984 17.2071C85.5632 17.2382 85.4779 17.375 85.5112 17.5098C85.5424 17.6445 85.6796 17.7295 85.8148 17.6963C85.95 17.6652 86.0353 17.5284 86.002 17.3937C85.9978 17.375 85.9895 17.3564 85.9812 17.3398C86.0457 17.3605 86.1164 17.3667 86.1871 17.3501C86.3555 17.3108 86.4699 17.1657 86.4803 17.0019C86.786 17.0268 87.0668 17.0765 87.3434 17.1594C87.3745 17.1677 87.4037 17.1781 87.4349 17.1885C87.491 17.2465 87.5742 17.2755 87.6574 17.2631C88.6036 17.5947 89.4875 18.1544 90.3443 18.967C90.7269 19.3298 91.095 19.7236 91.4506 20.1029C91.54 20.1983 91.6295 20.2937 91.7189 20.389C91.7355 20.4077 91.7605 20.4139 91.7854 20.4097C91.7958 20.4077 91.8062 20.4014 91.8166 20.3932L91.8624 20.3413L91.8229 20.2957C91.7397 20.2004 91.6565 20.1029 91.5733 20.0055C90.8642 19.1784 90.1301 18.3223 89.2109 17.6901C88.8199 17.4227 88.3686 17.1947 87.8695 17.0081C87.8695 16.9915 87.8674 16.9729 87.8633 16.9563C87.8321 16.8216 87.6948 16.7366 87.5596 16.7697C87.5014 16.7842 87.4557 16.8153 87.4203 16.8589C87.0792 16.7594 86.7236 16.7013 86.3451 16.6847C86.2557 16.6101 86.133 16.577 86.0103 16.606C85.95 16.6205 85.898 16.6474 85.8543 16.6847C85.8252 16.6847 85.7961 16.6847 85.767 16.6868L85.6339 16.693C85.4883 16.6993 85.3407 16.7075 85.193 16.7221C86.0977 16.2453 87.0314 15.754 88.0276 15.5488C88.0276 15.5488 88.0276 15.5488 88.0296 15.5488C88.0338 15.5488 88.038 15.5488 88.0421 15.5467C89.1485 15.3208 90.338 15.5509 91.6794 16.2453C92.6984 16.7739 93.5885 17.5015 94.2477 18.0777C95.2189 18.9235 96.084 19.8231 96.8202 20.7497C97.4732 21.5726 98.2614 22.6775 98.5775 23.9254C98.5879 23.9627 98.6253 23.9876 98.6628 23.9793C98.7002 23.971 98.7252 23.9337 98.7169 23.8943C98.5172 22.8164 97.8746 21.8421 97.2736 21.0316C96.5603 20.0698 95.6848 19.1204 94.6699 18.2042C93.6696 17.3004 92.8107 16.6619 91.9705 16.1935C90.7082 15.4887 89.5207 15.184 88.4435 15.2897C88.379 15.2959 88.3166 15.3042 88.2522 15.3125C88.2584 15.2731 88.2584 15.2316 88.248 15.1902C88.2251 15.0907 88.1523 15.014 88.065 14.9787C88.0899 14.9684 88.117 14.9559 88.144 14.9456C89.5249 14.3963 91.1491 14.2118 92.7171 14.4253C93.603 14.5476 94.3829 14.815 95.0359 15.2213C95.7347 15.6566 96.3918 16.3075 97.049 17.2113C97.5419 17.8891 97.989 18.6623 98.4964 19.7153C98.5401 19.8045 98.5838 19.8936 98.6274 19.9827C98.8021 20.3351 98.9851 20.702 99.0912 21.0751C99.191 21.4275 99.1785 21.7779 99.164 22.151L99.1598 22.2546C99.1473 22.6443 99.2534 22.9801 99.3657 23.3346C99.4073 23.4673 99.451 23.6041 99.4884 23.745C99.5903 24.1368 99.5799 24.5576 99.4593 24.9971L99.4676 24.9929Z" fill="#323C60"/>
<path d="M85.7316 13.2562C85.7815 13.4635 85.9895 13.592 86.1975 13.5422C86.4054 13.4925 86.5344 13.2852 86.4844 13.0779C86.4345 12.8706 86.2266 12.7421 86.0186 12.7919C85.8106 12.8416 85.6817 13.0489 85.7316 13.2562Z" fill="#323C60"/>
<path d="M85.6048 14.4025C85.4405 14.4419 85.3386 14.6056 85.3781 14.7694C85.4177 14.9332 85.5819 15.0347 85.7462 14.9953C85.9105 14.956 86.0124 14.7922 85.9729 14.6284C85.9334 14.4647 85.7691 14.3631 85.6048 14.4025Z" fill="#323C60"/>
<path d="M84.1012 12.854C83.9411 12.8914 83.8433 13.051 83.8808 13.2106C83.9182 13.3702 84.0783 13.4676 84.2385 13.4303C84.3986 13.393 84.4964 13.2334 84.4589 13.0738C84.4215 12.9142 84.2614 12.8167 84.1012 12.854Z" fill="#323C60"/>
<path d="M81.2833 15.4182C81.3998 15.3913 81.4726 15.2752 81.4435 15.1591C81.4164 15.043 81.3 14.9705 81.1835 14.9995C81.0671 15.0285 80.9943 15.1425 81.0234 15.2586C81.0504 15.3747 81.1669 15.4472 81.2833 15.4182Z" fill="#323C60"/>
<path d="M86.4637 12.6011C86.5427 12.5825 86.5926 12.5016 86.5739 12.4229C86.5552 12.3441 86.4741 12.2944 86.395 12.313C86.316 12.3317 86.2661 12.4125 86.2848 12.4913C86.3035 12.5701 86.3846 12.6198 86.4637 12.6011Z" fill="#323C60"/>
<path d="M87.4972 15.7623C87.3974 15.7851 87.3246 15.8618 87.2997 15.9551C87.204 15.8888 87.0813 15.8597 86.9586 15.8888C86.7278 15.9427 86.5864 16.1727 86.6404 16.4008C86.6945 16.6309 86.9253 16.7718 87.1541 16.7179C87.36 16.6702 87.4931 16.4816 87.4827 16.2805C87.5263 16.293 87.5721 16.2971 87.6199 16.2847C87.7655 16.2515 87.8549 16.1064 87.8196 15.9613C87.7842 15.8162 87.6407 15.7271 87.4952 15.7623H87.4972Z" fill="#323C60"/>
<path d="M82.3128 12.8582C82.4209 12.8333 82.4875 12.7255 82.4625 12.6177C82.4375 12.5099 82.3294 12.4436 82.2213 12.4685C82.1131 12.4934 82.0466 12.6011 82.0715 12.7089C82.0965 12.8167 82.2046 12.8831 82.3128 12.8582Z" fill="#323C60"/>
<path d="M81.3416 13.8076C81.4539 13.7806 81.5246 13.6687 81.4975 13.5547C81.4705 13.4427 81.3582 13.3723 81.2438 13.3992C81.1294 13.4262 81.0608 13.5381 81.0878 13.6521C81.1149 13.764 81.2272 13.8345 81.3416 13.8076Z" fill="#323C60"/>
<path d="M80.7447 14.8274C80.8487 14.8026 80.9131 14.6989 80.8882 14.5953C80.8632 14.4916 80.7593 14.4274 80.6553 14.4522C80.5513 14.4771 80.4868 14.5808 80.5118 14.6844C80.5367 14.7881 80.6407 14.8523 80.7447 14.8274Z" fill="#323C60"/>
<path d="M85.1244 11.7637C85.0953 11.6435 84.9768 11.5709 84.8561 11.5979C84.7355 11.6269 84.6627 11.745 84.6898 11.8653C84.7189 11.9855 84.8374 12.058 84.958 12.0311C85.0787 12.0021 85.1515 11.8839 85.1244 11.7637Z" fill="#323C60"/>
<path d="M85.0287 12.7877C84.9663 12.8022 84.9268 12.8644 84.9414 12.9266C84.9559 12.9888 85.0183 13.0282 85.0807 13.0136C85.1431 12.9991 85.1826 12.937 85.1681 12.8748C85.1535 12.8126 85.0911 12.7732 85.0287 12.7877Z" fill="#323C60"/>
<path d="M87.4494 12.852C87.3891 12.8665 87.3517 12.9266 87.3662 12.9867C87.3808 13.0468 87.4411 13.0841 87.5014 13.0696C87.5617 13.0551 87.5992 12.995 87.5846 12.937C87.57 12.8768 87.5097 12.8395 87.4494 12.854V12.852Z" fill="#323C60"/>
<path d="M82.4042 17.8456C82.3481 17.858 82.3127 17.916 82.3252 17.972C82.3377 18.028 82.3959 18.0632 82.4521 18.0508C82.5082 18.0383 82.5436 17.9803 82.5311 17.9243C82.5186 17.8684 82.4604 17.8331 82.4042 17.8456Z" fill="#323C60"/>
<path d="M81.5931 17.7067C81.4039 17.7523 81.2854 17.9409 81.3311 18.1316C81.3769 18.3203 81.5661 18.4384 81.7574 18.3928C81.9467 18.3472 82.0652 18.1586 82.0195 17.9679C81.9737 17.7792 81.7845 17.6611 81.5931 17.7067Z" fill="#323C60"/>
<path d="M81.7346 18.8281C81.6639 18.8447 81.6202 18.9152 81.6368 18.9857C81.6535 19.0561 81.7242 19.0997 81.7949 19.0831C81.8656 19.0665 81.9093 18.996 81.8926 18.9256C81.876 18.8551 81.8053 18.8115 81.7346 18.8281Z" fill="#323C60"/>
</g>
<defs>
<clipPath id="clip0_12_5">
<rect width="165" height="192" fill="white" transform="translate(0.5)"/>
</clipPath>
</defs>
</svg>
